<?xml version="1.0" encoding="UTF-8" standalone="no"?>
<!DOCTYPE svg PUBLIC "-//W3C//DTD SVG 1.1//EN" "http://www.w3.org/Graphics/SVG/1.1/DTD/svg11.dtd">
<svg width="100%" height="100%" viewBox="0 0 154 140" version="1.1" xmlns="http://www.w3.org/2000/svg" xmlns:xlink="http://www.w3.org/1999/xlink" xml:space="preserve" style="fill-rule:evenodd;clip-rule:evenodd;stroke-linejoin:round;stroke-miterlimit:2;">
    <g>
        <g>
            <path d="M0,117L0,22L46,22L28,44L22,44L22,95L31,95L12,117L0,117Z" style="fill:#121212;fill-rule:nonzero;"/>
        </g>
        <g>
            <path d="M70.427,95L116,95L97,117L52,117L3,140L82.729,44L37,44L56,22L101,22L150,0L70.427,95Z" style="fill:#121212;fill-rule:nonzero;"/>
        </g>
        <g>
            <path d="M153,22L153,117L106,117L125,95L131,95L131,45L122,45L141,22L153,22Z" style="fill:#121212;fill-rule:nonzero;"/>
        </g>
    </g>
</svg>
