<?xml version="1.0" encoding="UTF-8" standalone="no"?>
<!DOCTYPE svg PUBLIC "-//W3C//DTD SVG 1.1//EN" "http://www.w3.org/Graphics/SVG/1.1/DTD/svg11.dtd">
<svg width="100%" height="100%" viewBox="0 0 16 16" version="1.1" xmlns="http://www.w3.org/2000/svg" xmlns:xlink="http://www.w3.org/1999/xlink" xml:space="preserve" xmlns:serif="http://www.serif.com/" style="fill-rule:evenodd;clip-rule:evenodd;stroke-linejoin:round;stroke-miterlimit:2;">
    <path d="M3,4.008L0,4.008L0,12.008L1.715,12L3.5,10L2,10.008L2,6.008L3,6.008L3,4.008Z" style="fill:#f7a41d;"/>
    <path d="M16,4L14.3,4L12.5,6L14,6L14,10L13,10L13,12L16,12L16,4Z" style="fill:#f7a41d;"/>
    <path d="M4,4L4,6L10.5,6L10.5,4L4,4Z" style="fill:#f7a41d;"/>
    <path d="M12,12L12,10L5.5,10L5.5,12L12,12Z" style="fill:#f7a41d;"/>
    <path d="M14.25,2.562L10.264,4L1.75,13.455L5.752,12L14.25,2.562Z" style="fill:#f7a41d;"/>
</svg>
