<?xml version="1.0" encoding="UTF-8" standalone="no"?>
<!DOCTYPE svg PUBLIC "-//W3C//DTD SVG 1.1//EN" "http://www.w3.org/Graphics/SVG/1.1/DTD/svg11.dtd">
<svg width="100%" height="100%" viewBox="0 0 400 140" version="1.1" xmlns="http://www.w3.org/2000/svg" xmlns:xlink="http://www.w3.org/1999/xlink" xml:space="preserve" style="fill-rule:evenodd;clip-rule:evenodd;stroke-linejoin:round;stroke-miterlimit:2;">
    <g>
        <g>
            <path d="M0,117L0,22L46,22L28,44L22,44L22,95L31,95L12,117L0,117Z" style="fill:#fff;fill-rule:nonzero;"/>
        </g>
        <g>
            <path d="M70.427,95L116,95L97,117L52,117L3,140L82.729,44L37,44L56,22L101,22L150,0L70.427,95Z" style="fill:#fff;fill-rule:nonzero;"/>
        </g>
        <g>
            <path d="M153,22L153,117L106,117L125,95L131,95L131,45L122,45L141,22L153,22Z" style="fill:#fff;fill-rule:nonzero;"/>
        </g>
        <g>
            <path d="M177,40L177,22L260,22L260,37L207,99L261,99L261,117L176,117L176,103L229,40L177,40Z" style="fill:#fff;fill-rule:nonzero;"/>
        </g>
        <rect x="272" y="22" width="22" height="95" style="fill:#fff;"/>
        <g>
            <path d="M394,106C383.8,113.3 370,118 356.3,118C327.3,118 305.2,97.2 305.2,69.7C305.2,42.4 327.7,21.6 357.2,21.6C371.5,21.6 386.4,27.1 396.1,35.6L383.1,50.6C376,44.3 366.3,40.6 357.2,40.6C340.2,40.6 327,53.5 327,70.1C327,86.9 340.3,99.7 357.3,99.7C362.908,99.7 369.872,97.473 376,94.354L376,81L346,67L394,67L394,106Z" style="fill:#fff;fill-rule:nonzero;"/>
        </g>
    </g>
</svg>
