<?xml version="1.0" encoding="UTF-8" standalone="no"?><!DOCTYPE svg PUBLIC "-//W3C//DTD SVG 1.1//EN" "http://www.w3.org/Graphics/SVG/1.1/DTD/svg11.dtd"><svg width="100%" height="100%" viewBox="0 0 345 290" version="1.1" xmlns="http://www.w3.org/2000/svg" xmlns:xlink="http://www.w3.org/1999/xlink" xml:space="preserve" xmlns:serif="http://www.serif.com/" style="fill-rule:evenodd;clip-rule:evenodd;stroke-linecap:round;stroke-linejoin:round;stroke-miterlimit:5;"><g id="Ziggy"><path id="outline" d="M89.272,258.621c0.87,0.119 1.76,0.206 2.675,0.262c29.593,1.824 47.68,2.917 71.661,-2.479c4.13,7.856 8.926,14.654 13.076,19.851l5.102,6.388l2.109,-15.52c0,0 7.191,7.123 7.191,7.123l8.204,8.125l-4.266,-20.877c-0,-0 20.036,9.202 20.036,9.202l-6.491,-10.079c-3.283,-5.098 -6.263,-10.34 -8.929,-15.703c0.185,-0.084 0.37,-0.169 0.556,-0.254c6.169,-2.833 17.459,-8.047 28.738,-16.63c-0.008,2.791 -0.4,5.111 -0.926,6.957l-0,-0c-1.43,5.02 -5.5,13.488 -6.299,15.136l-0.001,0.002c-0.392,0.813 -0.794,1.622 -1.203,2.426l-4.141,8.153l10.731,-4.159c-0,0 -4.495,16.41 -4.495,16.41l14.723,-11.686c-0,0 3.883,13.808 3.883,13.808l4.248,-5.758c5.535,-7.501 9.737,-15.737 12.509,-24.525l-0,-0c6.116,-19.391 3.894,-36.894 0.616,-48.771l-1.139,-4.125l-0.119,0.06l0.072,-0.186c2.247,-5.822 3.758,-11.971 4.499,-18.31c2.05,1.777 4.508,2.811 6.842,2.889l0.008,0.001c1.93,0.05 3.558,-0.593 4.432,-1.51c0.78,-0.82 1.312,-2.159 1.306,-3.833c-0.004,-1.474 -0.418,-3.258 -1.349,-5.037c2.797,-0.12 4.656,-1.009 5.631,-2.29c0.749,-0.984 1.074,-2.265 1.037,-3.7c-0.039,-1.566 -0.521,-3.358 -0.962,-4.916c-0.235,-0.831 -0.463,-1.616 -0.568,-2.316c-0.033,-0.219 -0.053,-0.425 -0.046,-0.617c0.001,-0.036 0.008,-0.086 0.014,-0.128c0.041,0.007 0.088,0.017 0.121,0.027c0.186,0.057 0.377,0.146 0.576,0.252c0.64,0.338 1.32,0.827 2.043,1.337c1.353,0.957 2.917,2.036 4.429,2.619c1.355,0.522 2.693,0.664 3.907,0.306c1.076,-0.317 1.946,-0.96 2.706,-2.077c0.757,-1.112 1.43,-2.855 2.32,-5.394c0.293,-0.835 0.609,-1.741 0.973,-2.716l-0,-0.001c2.514,-6.771 5.076,-11.238 6.946,-14.5c0.283,-0.494 0.544,-0.954 0.783,-1.386c2.163,-0.282 4.142,-0.624 5.898,-1.144c3.437,-1.017 6.119,-2.7 7.959,-5.497l-0,-0.001c0.63,-0.959 1.131,-2.015 1.493,-3.161l0.424,-1.346l0.611,-0.125c3.57,-0.777 5.844,-1.535 5.897,-1.553c7.928,-2.666 12.466,-4.693 14.743,-9.241c2.194,-4.381 1.362,-8.976 0.878,-10.752c-2.325,-8.527 -11.74,-12.546 -15.772,-13.77c-1.564,-0.475 -3.181,-0.804 -4.823,-0.982l-0.144,-0.565c-4.559,-17.175 -22.761,-26.784 -30.453,-30.04c-1.732,-0.733 -3.461,-1.364 -5.182,-1.902c-0.299,-2.417 -0.424,-5.348 -0.067,-8.64c0.577,-5.321 2.181,-9.477 3.448,-12.127c-2.403,1.98 -5.754,5.209 -8.681,9.957c-1.953,3.167 -3.21,6.189 -4.033,8.728c-0.471,-0.065 -0.941,-0.124 -1.409,-0.177c-0.531,-3.234 -0.886,-7.164 -0.686,-11.615c0.274,-6.122 1.505,-11.179 2.681,-14.808c-2.55,2.59 -6.014,6.71 -8.809,12.51c-2.494,5.176 -3.631,9.978 -4.16,13.654c-0.427,0.026 -0.852,0.057 -1.274,0.091c-2.309,-6.44 -4.547,-14.464 -5.799,-23.83c-1.098,-8.205 -1.185,-15.538 -0.859,-21.636c-3.393,3.451 -9.055,10.156 -12.291,20.232c-4.056,12.632 -2.1,23.713 -0.498,29.543c-1.199,0.433 -2.318,0.869 -3.347,1.294c-3.924,-7.005 -7.987,-15.471 -11.474,-25.348c-3.011,-8.531 -5.007,-16.454 -6.347,-23.424c-2.075,5.437 -4.379,13.504 -4.504,23.424c-0.189,15.06 4.737,26.827 8.37,33.584c-0.313,0.264 -0.624,0.532 -0.931,0.805c-4.716,-3.891 -10.386,-9.481 -15.482,-17.155c-3.893,-5.863 -6.459,-11.449 -8.173,-16.064c-1.013,4.301 -1.914,10.636 -0.847,18.107c1.993,13.969 9.644,23.371 13.583,27.516l-0.258,0.343l-0.178,0.237c-3.955,-0.84 -9.937,-2.689 -15.999,-7.032c-9.453,-6.774 -13.497,-15.598 -14.981,-19.405c-0.514,3.946 -0.89,11.151 2.088,19.277c4.803,13.11 15.04,19.634 18.471,21.607c-1.147,1.633 -2.246,3.214 -3.302,4.746c-4.279,-1.844 -9.83,-4.762 -15.552,-9.374c-6.643,-5.354 -11.059,-11.006 -13.824,-15.177c0.28,3.76 1.393,11.82 6.93,20.028c5.297,7.853 12.048,11.995 16.065,13.97c-1.19,1.8 -2.311,3.521 -3.372,5.168c-3.21,-0.552 -7.469,-1.705 -11.969,-4.202c-7.629,-4.233 -11.875,-10.061 -13.788,-13.107c0.216,3.149 1.021,8.503 4.256,14.128c4.514,7.849 11.213,11.799 14.994,13.556c-0.991,1.62 -1.919,3.156 -2.797,4.618c-2.803,-0.327 -6.826,-1.224 -11.006,-3.706c-6.309,-3.745 -9.385,-8.966 -10.553,-11.234c0.452,3.235 1.63,8.612 5.106,14.298c3.25,5.316 7.232,8.813 10.253,10.957c-1.107,1.799 -2.178,3.489 -3.268,5.117c-2.753,-0.6 -6.321,-1.742 -10.049,-3.989c-6.632,-3.999 -10.178,-9.337 -11.744,-12.085c-0.245,1.817 -0.984,8.894 3.575,15.83c3.879,5.905 9.338,8.268 11.531,9.057c-1.524,1.758 -3.201,3.548 -5.108,5.436c-0.362,0.358 -0.724,0.712 -1.085,1.062c-1.924,-1.109 -4.057,-2.568 -6.19,-4.491c-6.034,-5.44 -8.877,-11.709 -10.212,-15.49c-0.333,2.965 -0.729,10.232 3.404,17.702c2.085,3.77 4.653,6.38 6.62,8.045c-1.184,0.999 -2.367,1.959 -3.547,2.882c-2.213,-1.503 -4.896,-3.661 -7.499,-6.671c-3.955,-4.574 -6.04,-9.169 -7.149,-12.256c-0.171,2.479 -0.16,7.055 1.873,12.256c2.137,5.471 5.461,8.947 7.319,10.638c-1.532,0.993 -3.064,1.986 -4.596,2.979c-1.98,-1.428 -4.339,-3.421 -6.638,-6.128c-3.585,-4.22 -5.55,-8.439 -6.639,-11.404c-0.386,2.273 -0.899,7.177 1.192,12.765c1.571,4.2 3.962,7.05 5.534,8.641c-2.037,1.083 -4.046,2.069 -6.017,2.964c-1.67,-1.413 -3.513,-3.215 -5.304,-5.477c-3.564,-4.498 -5.447,-8.95 -6.468,-12.085c-0.374,2.28 -0.79,6.724 0.851,11.915c1.178,3.73 2.995,6.506 4.453,8.328c-2.402,0.902 -4.728,1.672 -6.959,2.329c-1.982,-1.09 -4.765,-3.124 -6.686,-6.657c-2.413,-4.436 -2.063,-8.652 -1.872,-10.128c-0.782,1.581 -2.453,5.49 -1.958,10.639c0.34,3.535 1.571,6.295 2.64,8.116c-0.674,0.138 -1.333,0.266 -1.978,0.384c-1.72,0.315 -3.976,0.73 -6.623,1.136c-1.477,-1.447 -3.235,-3.602 -4.507,-6.572c-1.843,-4.305 -1.733,-8.138 -1.562,-9.973c-1.014,1.734 -2.52,4.816 -3.033,8.951c-0.442,3.557 0.015,6.561 0.537,8.632c-2.552,0.222 -5.259,0.371 -8.05,0.396c-0.65,-1.366 -1.29,-2.975 -1.807,-4.815c-1.054,-3.76 -1.195,-7.068 -1.1,-9.441c-1.5,1.745 -3.84,4.957 -5.027,9.569c-0.404,1.568 -0.606,3.03 -0.689,4.327c-1.478,-0.143 -2.959,-0.334 -4.435,-0.578c-9.154,-1.515 -18.124,-5.11 -24.339,-12.833c-6.908,-8.584 -12.497,-25.457 -2.043,-57.009c2.403,-7.252 5.365,-16.288 12.481,-26.002c2.796,-3.816 5.858,-7.246 8.558,-10.275l-0,-0.001c3.314,-3.72 6.44,-7.342 7.671,-9.913c1.085,-2.264 0.992,-4.19 0.306,-5.557l-0.001,-0.001c-0.604,-1.2 -1.922,-2.448 -4.198,-3.107l-1.025,-0.297l-1.017,0.326c-8.774,2.813 -16.791,6.94 -23.836,12.26c-33.885,25.587 -40.448,72.729 -32.052,105.75c7.543,29.667 21.645,45.447 33.978,53.872c-0.579,9.797 3.932,19.747 12.186,26.461l-14.846,12.99l20.593,-4.806c-0.398,0.808 -0.8,1.609 -1.203,2.401c-0.563,1.106 -1.138,2.213 -1.721,3.316l-6.389,12.079l20.56,-13.552l0.822,14.606l5.234,-3.946c4.829,-3.643 11.039,-9.994 13.41,-19.454c0.433,-1.728 0.714,-3.484 0.848,-5.253Z" style="fill:none;fill-rule:nonzero;stroke:#808080;stroke-width:5px;"/><path id="dorsal-crests" d="M104.758,186.343l-0.013,0.003l-0.051,0.011l-7.722,1.438c-1.476,-1.112 -4.562,-3.748 -6.511,-8.297c-1.843,-4.305 -1.733,-8.138 -1.562,-9.973c-1.014,1.734 -2.52,4.816 -3.033,8.951c-0.559,4.502 0.321,8.119 0.952,10.079c-2.608,0.074 -5.217,0.147 -7.825,0.219c-0.854,-1.6 -1.76,-3.639 -2.447,-6.085c-1.054,-3.76 -1.195,-7.068 -1.1,-9.441c-1.5,1.745 -3.84,4.957 -5.027,9.569c-0.666,2.584 -0.781,4.879 -0.724,6.624c2.046,0.05 4.729,0.078 7.873,0.014c-0,0 5.63,-0.116 10.695,-0.543c6.004,-0.508 11.677,-1.505 16.431,-2.555l0.065,-0.012l-0.001,-0.002c7.931,-1.756 13.278,-3.654 13.278,-3.654c14.736,-5.23 24.554,-12.827 32.425,-19.021c6.202,-4.88 20.389,-16.84 33.618,-36.681c12.139,-18.209 9.537,-22.155 21.822,-38.827c7.396,-10.036 14.757,-20.026 27.198,-27.216c19.741,-11.407 41.048,-9.28 52.043,-7.191c-0.607,-2.794 -1.183,-6.977 -0.639,-12c0.577,-5.321 2.181,-9.477 3.448,-12.127c-2.403,1.98 -5.754,5.209 -8.681,9.957c-2.764,4.482 -4.135,8.675 -4.852,11.617c-0.813,-3.673 -1.544,-8.708 -1.276,-14.681c0.274,-6.122 1.505,-11.179 2.681,-14.808c-2.55,2.59 -6.014,6.71 -8.809,12.51c-3.159,6.557 -4.141,12.514 -4.468,16.341c-2.633,-6.83 -5.339,-15.757 -6.765,-26.426c-1.098,-8.205 -1.185,-15.538 -0.859,-21.636c-3.393,3.451 -9.055,10.156 -12.291,20.232c-4.745,14.779 -1.261,27.436 0.256,32.042c-0.893,0.426 -1.788,0.852 -2.682,1.277c-4.349,-7.455 -8.983,-16.756 -12.893,-27.83c-3.011,-8.531 -5.007,-16.454 -6.347,-23.424c-2.075,5.437 -4.379,13.504 -4.504,23.424c-0.219,17.418 6.405,30.432 9.957,36.383c-5.108,-3.881 -11.958,-10.05 -18,-19.149c-3.893,-5.863 -6.459,-11.449 -8.173,-16.064c-1.013,4.301 -1.914,10.636 -0.847,18.107c2.139,14.99 10.793,24.721 14.383,28.34c-3.869,-0.705 -10.502,-2.453 -17.235,-7.276c-9.453,-6.774 -13.497,-15.598 -14.981,-19.405c-0.514,3.946 -0.89,11.151 2.088,19.277c4.884,13.33 15.385,19.851 18.638,21.702c-1,1.617 -2,3.234 -3,4.851c-4.337,-1.83 -10.087,-4.791 -16.021,-9.574c-6.643,-5.354 -11.059,-11.006 -13.824,-15.177c0.28,3.76 1.393,11.82 6.93,20.028c6.225,9.229 14.459,13.332 17.903,14.818c-1.01,1.544 -2.02,3.088 -3.031,4.631c-3.295,-0.374 -8.533,-1.397 -14.148,-4.513c-7.629,-4.233 -11.875,-10.061 -13.788,-13.107c0.216,3.149 1.021,8.503 4.256,14.128c5.403,9.396 13.938,13.204 16.85,14.353c-0.806,1.33 -1.613,2.66 -2.421,3.991c-2.546,-0.091 -7.756,-0.622 -13.238,-3.876c-6.309,-3.745 -9.385,-8.966 -10.553,-11.234c0.452,3.235 1.63,8.612 5.106,14.298c4.274,6.99 9.813,10.835 12.767,12.596c-1.216,1.29 -2.431,2.581 -3.647,3.872c-2.872,-0.434 -7.397,-1.497 -12.184,-4.383c-6.632,-3.999 -10.178,-9.337 -11.744,-12.085c-0.245,1.817 -0.984,8.894 3.575,15.83c4.13,6.287 10.05,8.558 11.914,9.191c-1.978,2.241 -3.957,4.482 -5.936,6.724c-2.085,-1.147 -4.457,-2.712 -6.83,-4.851c-6.034,-5.44 -8.877,-11.709 -10.212,-15.49c-0.333,2.965 -0.729,10.232 3.404,17.702c2.175,3.933 4.876,6.604 6.872,8.256c-1.056,1.03 -2.112,2.06 -3.168,3.091c-2.321,-1.512 -5.274,-3.788 -8.13,-7.091c-3.955,-4.574 -6.04,-9.169 -7.149,-12.256c-0.171,2.479 -0.16,7.055 1.873,12.256c2.137,5.471 5.461,8.947 7.319,10.638c-1.532,0.993 -3.064,1.986 -4.596,2.979c-1.98,-1.428 -4.339,-3.421 -6.638,-6.128c-3.585,-4.22 -5.55,-8.439 -6.639,-11.404c-0.386,2.273 -0.899,7.177 1.192,12.765c1.628,4.352 4.137,7.255 5.702,8.809c-1.745,1.191 -3.489,2.383 -5.234,3.575c-1.904,-1.511 -4.117,-3.556 -6.255,-6.256c-3.564,-4.498 -5.447,-8.95 -6.468,-12.085c-0.374,2.28 -0.79,6.724 0.851,11.915c1.483,4.695 3.977,7.878 5.496,9.55c-1.971,0.693 -3.941,1.385 -5.911,2.078c-1.269,-0.482 -5.953,-2.435 -8.777,-7.628c-2.413,-4.436 -2.063,-8.652 -1.872,-10.128c-0.782,1.581 -2.453,5.49 -1.958,10.639c0.484,5.03 2.772,8.492 3.829,9.909Z" style="fill:#231f20;fill-rule:nonzero;stroke:#231f20;stroke-width:1px;"/><g id="leg-left-front"><path id="base" d="M258.579,196.023l-1.139,-4.125l-33.369,16.907l1.255,3.002c4.491,10.745 4.018,18.493 2.682,23.18l-0,-0c-1.43,5.02 -5.5,13.488 -6.299,15.136l-0.001,0.002c-0.392,0.813 -0.794,1.622 -1.203,2.426l-4.141,8.153l10.731,-4.159c-0,0 -4.495,16.41 -4.495,16.41l14.723,-11.686c-0,0 3.883,13.808 3.883,13.808l4.248,-5.758c5.535,-7.501 9.737,-15.737 12.509,-24.525l-0,-0c6.116,-19.391 3.894,-36.894 0.616,-48.771Z" style="fill:#f98a31;"/><g id="highlights"><path d="M231.79,261.192l-2.987,2.377l3.481,-12.729c0.119,0.566 0.224,1.154 0.295,1.765c0.388,3.293 -0.082,6.222 -0.789,8.587" style="fill:#e56c2c;fill-rule:nonzero;"/><path d="M255.704,200.332c-0.282,1.035 -0.894,1.939 -1.493,2.835c-2.906,4.293 -5.858,8.62 -9.505,12.338c-0.105,0.109 -0.223,0.227 -0.352,0.349c-2.492,2.402 -4.169,5.513 -4.773,8.921c-0.401,2.263 -0.887,4.234 -1.356,5.88c-1.259,4.436 -3.729,12.752 -10.81,20.504c-0.824,0.904 -1.634,1.717 -2.4,2.434l-1.388,0.541c0.412,-0.823 0.835,-1.658 1.235,-2.481c0.824,-1.717 5.036,-10.504 6.517,-15.705c0.859,-3.022 1.423,-7.21 0.764,-12.526c-0.47,-3.764 -1.54,-8.081 -3.587,-12.964c-0,0 0.001,-0.001 0.001,-0.002c4.927,-2.487 9.857,-4.989 14.785,-7.491c3.906,-1.975 7.822,-4.398 11.88,-5.974c0.424,1.106 0.812,2.129 0.482,3.341" style="fill:#e56c2c;fill-rule:nonzero;"/><path d="M242.895,266.886c-0.082,0.117 -0.176,0.234 -0.26,0.353l-3.175,-11.316c0.506,0.423 0.906,0.823 1.07,1.14c1.965,3.659 2.377,7.27 2.365,9.823" style="fill:#e56c2c;fill-rule:nonzero;"/></g><path id="outline1" serif:id="outline" d="M258.579,196.023l-1.139,-4.125l-33.369,16.907l1.255,3.002c4.491,10.745 4.018,18.493 2.682,23.18l-0,-0c-1.43,5.02 -5.5,13.488 -6.299,15.136l-0.001,0.002c-0.392,0.813 -0.794,1.622 -1.203,2.426l-4.141,8.153l10.731,-4.159c-0,0 -4.495,16.41 -4.495,16.41l14.723,-11.686c-0,0 3.883,13.808 3.883,13.808l4.248,-5.758c5.535,-7.501 9.737,-15.737 12.509,-24.525l-0,-0c6.116,-19.391 3.894,-36.894 0.616,-48.771Zm-3.374,0.931l-26.65,13.503c4.936,11.809 4.287,20.339 2.819,25.489c-1.483,5.206 -5.687,13.994 -6.515,15.703c-0.402,0.832 -0.814,1.662 -1.233,2.487l8.679,-3.364l-3.504,12.793l10.467,-8.308l3.37,11.984c5.304,-7.188 9.331,-15.079 11.987,-23.5c5.867,-18.602 3.725,-35.393 0.58,-46.787Z" style="fill:#231f20;"/></g><g id="belly"><path id="base1" serif:id="base" d="M261.892,173.462c2.05,1.777 4.508,2.811 6.842,2.889l0.008,0.001c1.93,0.05 3.558,-0.593 4.432,-1.51c0.78,-0.82 1.312,-2.159 1.306,-3.833c-0.004,-1.474 -0.418,-3.258 -1.349,-5.037c2.797,-0.12 4.656,-1.009 5.631,-2.29c0.749,-0.984 1.074,-2.265 1.037,-3.7c-0.039,-1.566 -0.521,-3.358 -0.962,-4.916c-0.235,-0.831 -0.463,-1.616 -0.568,-2.316c-0.033,-0.219 -0.053,-0.425 -0.046,-0.617c0.001,-0.036 0.008,-0.086 0.014,-0.128c0.041,0.007 0.088,0.017 0.121,0.027c0.186,0.057 0.377,0.146 0.576,0.252c0.64,0.338 1.32,0.827 2.043,1.337c1.353,0.957 2.917,2.036 4.429,2.619c1.355,0.522 2.693,0.664 3.907,0.306c1.076,-0.317 1.946,-0.96 2.706,-2.077c0.757,-1.112 1.43,-2.855 2.32,-5.394c0.293,-0.835 0.609,-1.741 0.973,-2.716l-0,-0.001c2.514,-6.771 5.076,-11.238 6.946,-14.5c1.452,-2.535 2.335,-4.206 2.643,-5.442c0.341,-1.367 0.162,-2.418 -0.441,-3.399l-0,-0.001c-0.51,-0.826 -1.414,-1.724 -3.137,-2.316c-1.864,-0.641 -4.979,-0.969 -10.153,-0.237c-11.717,1.66 -23.051,8.151 -33.626,19.399c-0.214,0.227 -0.39,0.415 -0.527,0.557c-0.609,0.626 -49.134,50.255 -96.952,63.76c-20.311,5.736 -37.233,3.496 -50.828,1.72c-5.728,-0.747 -10.843,-1.408 -15.354,-1.408c-7.714,0 -13.752,1.905 -18.255,8.036c-6.112,8.323 -7.094,21.18 -5.364,29.613c1.229,5.988 3.871,10.377 6.965,12.201c4.766,2.809 9.305,4.208 14.718,4.542c34.196,2.108 53.028,3.239 83.342,-5.489c8.847,-2.548 15.828,-4.564 24.907,-8.734c12.262,-5.632 44.758,-20.669 57.197,-52.888c2.247,-5.822 3.758,-11.971 4.499,-18.31Z" style="fill:#f15a29;fill-rule:nonzero;"/><g id="highlights1" serif:id="highlights"><path d="M160.041,255.121c-6.167,1.27 -14.937,3.857 -24.147,4.215c-22.108,0.858 -48.662,-1.124 -55.164,-4.208c-0.21,-2.96 -0.407,-4.57 -1.497,-7.421c1.37,-1.199 -0.78,-2.911 0.19,-4.361c7.78,1.25 37.378,4.885 50.908,5.195c9.76,0.221 20.323,-1.961 28.603,-3.621c0.64,3.09 3.298,7.051 4.358,9.96" style="fill:#c54827;fill-rule:nonzero;"/><path d="M277.17,162.471c-0.9,1.18 -2.84,1.68 -5.78,1.479l-1.92,-0.129c-0.04,-0.18 0.08,-0.371 0.2,-0.531c1.04,-1.38 2.87,-1.769 2.87,-1.769c1.29,-0.28 1.5,0.059 2.34,-0.13c1.18,-0.26 2.189,-1.24 2.83,-2.37c0.189,1.33 0.12,2.58 -0.54,3.45" style="fill:#c54827;fill-rule:nonzero;"/><path d="M300.44,131.001c-1.899,3.32 -4.47,7.84 -7,14.66c-0.37,0.99 -0.689,1.91 -0.989,2.75c-1.351,3.86 -2.071,5.74 -3.7,6.22c-2.04,0.6 -4.581,-1.2 -6.621,-2.64c-1.25,-0.88 -2.389,-1.69 -3.4,-1.93c0.21,-0.24 0.41,-0.4 0.53,-0.5c2.14,-1.67 4.93,-0.33 6.941,-0.51c2.559,-0.22 3.349,-2.83 7.279,-8.76c2.811,-4.25 5.311,-8.02 6.96,-9.29" style="fill:#c54827;fill-rule:nonzero;"/><path d="M271.18,173.861c-0.6,0.34 -1.439,0.51 -2.38,0.49c-2.45,-0.08 -5.03,-1.48 -6.92,-3.75l-1.54,-1.86l-0.22,2.42c-0.62,6.9 -2.16,13.591 -4.589,19.89c-2.901,7.52 -6.921,14.081 -11.521,19.78c-1.75,2.171 -3.58,4.21 -5.47,6.131c-5.45,5.569 -11.36,10.159 -17.03,13.909c-0.88,0.58 -1.76,1.14 -2.63,1.69c-7.889,4.941 -15.07,8.24 -19.52,10.28c-2.93,1.35 -5.64,2.47 -8.27,3.45c-1.066,-2.93 -2.134,-5.86 -3.2,-8.789c12.265,-3.805 21.408,-8.91 27.373,-12.789c7.628,-4.962 30.107,-20.96 41.317,-50.001c1.283,-3.325 2.15,-6.123 2.68,-7.96c0.84,-0.521 2.05,-1.071 3.28,-0.761c1.65,0.41 2.161,2.07 3.42,3.74c1.38,1.82 3.38,3.32 5.22,4.13" style="fill:#c54827;fill-rule:nonzero;"/></g><path id="outline2" serif:id="outline" d="M261.892,173.462c2.05,1.777 4.508,2.811 6.842,2.889l0.008,0.001c1.93,0.05 3.558,-0.593 4.432,-1.51c0.78,-0.82 1.312,-2.159 1.306,-3.833c-0.004,-1.474 -0.418,-3.258 -1.349,-5.037c2.797,-0.12 4.656,-1.009 5.631,-2.29c0.749,-0.984 1.074,-2.265 1.037,-3.7c-0.039,-1.566 -0.521,-3.358 -0.962,-4.916c-0.235,-0.831 -0.463,-1.616 -0.568,-2.316c-0.033,-0.219 -0.053,-0.425 -0.046,-0.617c0.001,-0.036 0.008,-0.086 0.014,-0.128c0.041,0.007 0.088,0.017 0.121,0.027c0.186,0.057 0.377,0.146 0.576,0.252c0.64,0.338 1.32,0.827 2.043,1.337c1.353,0.957 2.917,2.036 4.429,2.619c1.355,0.522 2.693,0.664 3.907,0.306c1.076,-0.317 1.946,-0.96 2.706,-2.077c0.757,-1.112 1.43,-2.855 2.32,-5.394c0.293,-0.835 0.609,-1.741 0.973,-2.716l-0,-0.001c2.514,-6.771 5.076,-11.238 6.946,-14.5c1.452,-2.535 2.335,-4.206 2.643,-5.442c0.341,-1.367 0.162,-2.418 -0.441,-3.399l-0,-0.001c-0.51,-0.826 -1.414,-1.724 -3.137,-2.316c-1.864,-0.641 -4.979,-0.969 -10.153,-0.237c-11.717,1.66 -23.051,8.151 -33.626,19.399c-0.214,0.227 -0.39,0.415 -0.527,0.557c-0.609,0.626 -49.134,50.255 -96.952,63.76c-20.311,5.736 -37.233,3.496 -50.828,1.72c-5.728,-0.747 -10.843,-1.408 -15.354,-1.408c-7.714,0 -13.752,1.905 -18.255,8.036c-6.112,8.323 -7.094,21.18 -5.364,29.613c1.229,5.988 3.871,10.377 6.965,12.201c4.766,2.809 9.305,4.208 14.718,4.542c34.196,2.108 53.028,3.239 83.342,-5.489c8.847,-2.548 15.828,-4.564 24.907,-8.734c12.262,-5.632 44.758,-20.669 57.197,-52.888c2.247,-5.822 3.758,-11.971 4.499,-18.31Zm40.864,-49.397c-0.833,-1.352 -3.475,-2.729 -11.306,-1.621c-11.317,1.603 -22.235,7.924 -32.449,18.788c-0.223,0.237 -0.406,0.432 -0.548,0.579c-0.49,0.504 -49.537,50.65 -97.845,64.293c-20.632,5.827 -37.82,3.583 -51.63,1.779c-5.632,-0.735 -10.66,-1.392 -15.095,-1.392c-7.017,0 -12.548,1.644 -16.643,7.22c-5.783,7.875 -6.654,20.049 -5.017,28.027c1.088,5.3 3.283,9.266 6.021,10.88c4.477,2.639 8.741,3.955 13.826,4.269c33.917,2.091 52.598,3.242 82.665,-5.415c8.747,-2.519 15.65,-4.506 24.626,-8.629c12.025,-5.523 43.967,-20.193 56.166,-51.791c2.431,-6.299 3.976,-12.992 4.592,-19.895l0.216,-2.413l1.549,1.863c1.884,2.263 4.469,3.664 6.917,3.746c1.257,0.033 2.353,-0.29 2.924,-0.89c1.233,-1.295 1.041,-4.792 -1.21,-7.932l-1.235,-1.722l2.114,0.141c2.934,0.198 4.88,-0.301 5.776,-1.479c1.227,-1.612 0.403,-4.522 -0.258,-6.861c-0.649,-2.299 -1.211,-4.285 0.124,-5.257c1.371,-0.996 3.096,0.224 5.094,1.635c2.041,1.443 4.577,3.241 6.617,2.64c1.629,-0.48 2.352,-2.355 3.704,-6.214c0.297,-0.847 0.618,-1.765 0.986,-2.753c2.565,-6.908 5.177,-11.468 7.085,-14.797c2.201,-3.842 3.06,-5.455 2.234,-6.799Z" style="fill:#231f20;"/></g><g id="upper"><path id="base2" serif:id="base" d="M318.815,119.323l0.611,-0.125c3.57,-0.777 5.844,-1.535 5.897,-1.553c7.928,-2.666 12.466,-4.693 14.743,-9.241c2.194,-4.381 1.362,-8.976 0.878,-10.752c-2.325,-8.527 -11.74,-12.546 -15.772,-13.77c-1.564,-0.475 -3.181,-0.804 -4.823,-0.982l-0.144,-0.565c-4.559,-17.175 -22.761,-26.784 -30.453,-30.04c-29.682,-12.564 -58.44,4.874 -58.729,5.051l-0.004,0.003c-8.508,5.274 -13.255,10.997 -21.921,22.931c-16.843,23.197 -25.311,37.376 -31.496,47.73c-6.488,10.864 -10.382,17.437 -19.1,26.066c-20.914,20.699 -42.485,28.219 -56.911,30.858c-6.758,1.237 -21.799,4.031 -36.296,1.632c-9.154,-1.515 -18.124,-5.11 -24.339,-12.833c-6.908,-8.584 -12.497,-25.457 -2.043,-57.009c2.403,-7.252 5.365,-16.288 12.481,-26.002c2.796,-3.816 5.858,-7.246 8.558,-10.275l-0,-0.001c3.314,-3.72 6.44,-7.342 7.671,-9.913c1.085,-2.264 0.992,-4.19 0.306,-5.557l-0.001,-0.001c-0.604,-1.2 -1.922,-2.448 -4.198,-3.107l-1.025,-0.297l-1.017,0.326c-8.774,2.813 -16.791,6.94 -23.836,12.26c-33.885,25.587 -40.448,72.729 -32.052,105.75c8.921,35.084 27.014,50.746 40.502,57.789c12.921,6.749 25.317,6.789 50.056,6.497l1.186,-0.014c22.562,-0.263 40.094,-4.124 66.626,-10.006c18.743,-4.154 23.408,-6.278 25.918,-7.403c13.441,-6.028 26.285,-16.192 38.173,-30.294c8.126,-9.64 12.128,-17.553 15.649,-24.542c4.268,-8.467 7.908,-15.816 18.462,-23.592c12.528,-9.231 20.729,-15.474 32.931,-16.987c1.324,-0.164 2.61,-0.302 3.856,-0.435c3.707,-0.396 7.02,-0.775 9.78,-1.592c3.437,-1.017 6.119,-2.7 7.959,-5.497l-0,-0.001c0.63,-0.959 1.131,-2.015 1.493,-3.161l0.424,-1.346Z" style="fill:#fbb040;fill-rule:nonzero;"/><g id="highlights2" serif:id="highlights"><path d="M53.731,82.221c-1.73,2.01 -3.49,4.15 -5.16,6.43c-7.38,10.08 -10.49,19.45 -12.98,26.97c-7.78,23.48 -6.93,39.27 -3.19,49.73c-2.05,-3.38 -3.41,-6.41 -4.33,-8.771c-8.97,-23.169 -2.03,-52.029 16.6,-68.169c2.27,-1.97 5.24,-4.17 9.06,-6.19" style="fill:#f09d2e;fill-rule:nonzero;"/><path d="M336.99,106.866c-0.261,0.527 -0.578,1.03 -0.96,1.499c-1.468,1.804 -3.658,2.842 -5.808,3.73c-12.12,5.006 -25.893,7.047 -38.424,3.184c-1.034,-0.319 -2.404,-0.565 -2.985,0.347c-0.643,1.009 0.485,2.289 1.637,2.611c2.851,0.796 5.833,1.386 8.78,1.764c0.09,0.011 0.181,0.03 0.281,0.04c4.94,0.77 10.16,0.62 15.54,-0.43c-0.26,0.84 -0.621,1.6 -1.081,2.3c-2.759,4.2 -8.24,4.79 -15.179,5.53c-1.271,0.13 -2.571,0.27 -3.92,0.44c-12.78,1.59 -21.45,7.97 -34.57,17.64c-11.13,8.2 -15.02,15.91 -19.52,24.84c-3.421,6.79 -7.301,14.49 -15.2,23.86c-11.5,13.65 -23.91,23.52 -36.92,29.35c-2.45,1.101 -7,3.141 -25.251,7.191c-26.25,5.809 -43.589,9.66 -65.909,9.919l-1.18,0.01c-23.911,0.28 -35.911,0.42 -48.4,-6.099c-12.94,-6.761 -30.17,-21.88 -38.73,-55.551c-2.881,-11.34 -3.96,-24.42 -2.671,-37.67c0.521,5.4 1.43,10.61 2.671,15.49c8.56,33.67 25.79,48.79 38.73,55.55c12.489,6.52 24.489,6.38 48.4,6.101c-0,0 1.178,-0.01 1.18,-0.01c16.243,-0.139 31.531,-3.527 47.38,-6.083c16.244,-2.621 32.741,-5.803 47.474,-13.451c13.548,-7.034 24.892,-17.536 34.825,-28.996c10.436,-12.039 18.691,-24.486 31.514,-34.279c6.342,-4.843 12.977,-9.297 19.173,-14.331c2.783,-2.261 5.232,-4.891 8.358,-6.623c3.386,-1.877 6.859,-3.37 10.679,-4.115c5.038,-0.983 10.096,-0.436 15.171,-0.877c5.085,-0.443 10.329,-2.566 14.144,-6.006c3.031,-2.735 5.439,-6.5 9.331,-7.734c0.26,-0.082 0.544,-0.152 0.802,-0.066c0.411,0.137 0.602,0.599 0.732,1.012c1.019,3.222 1.36,6.965 -0.094,9.913" style="fill:#f09d2e;fill-rule:nonzero;"/></g><path id="outline3" serif:id="outline" d="M318.815,119.323l0.611,-0.125c3.57,-0.777 5.844,-1.535 5.897,-1.553c7.928,-2.666 12.466,-4.693 14.743,-9.241c2.194,-4.381 1.362,-8.976 0.878,-10.752c-2.325,-8.527 -11.74,-12.546 -15.772,-13.77c-1.564,-0.475 -3.181,-0.804 -4.823,-0.982l-0.144,-0.565c-4.559,-17.175 -22.761,-26.784 -30.453,-30.04c-29.682,-12.564 -58.44,4.874 -58.729,5.051l-0.004,0.003c-8.508,5.274 -13.255,10.997 -21.921,22.931c-16.843,23.197 -25.311,37.376 -31.496,47.73c-6.488,10.864 -10.382,17.437 -19.1,26.066c-20.914,20.699 -42.485,28.219 -56.911,30.858c-6.758,1.237 -21.799,4.031 -36.296,1.632c-9.154,-1.515 -18.124,-5.11 -24.339,-12.833c-6.908,-8.584 -12.497,-25.457 -2.043,-57.009c2.403,-7.252 5.365,-16.288 12.481,-26.002c2.796,-3.816 5.858,-7.246 8.558,-10.275l-0,-0.001c3.314,-3.72 6.44,-7.342 7.671,-9.913c1.085,-2.264 0.992,-4.19 0.306,-5.557l-0.001,-0.001c-0.604,-1.2 -1.922,-2.448 -4.198,-3.107l-1.025,-0.297l-1.017,0.326c-8.774,2.813 -16.791,6.94 -23.836,12.26c-33.885,25.587 -40.448,72.729 -32.052,105.75c8.921,35.084 27.014,50.746 40.502,57.789c12.921,6.749 25.317,6.789 50.056,6.497l1.186,-0.014c22.562,-0.263 40.094,-4.124 66.626,-10.006c18.743,-4.154 23.408,-6.278 25.918,-7.403c13.441,-6.028 26.285,-16.192 38.173,-30.294c8.126,-9.64 12.128,-17.553 15.649,-24.542c4.268,-8.467 7.908,-15.816 18.462,-23.592c12.528,-9.231 20.729,-15.474 32.931,-16.987c1.324,-0.164 2.61,-0.302 3.856,-0.435c3.707,-0.396 7.02,-0.775 9.78,-1.592c3.437,-1.017 6.119,-2.7 7.959,-5.497l-0,-0.001c0.63,-0.959 1.131,-2.015 1.493,-3.161l0.424,-1.346Zm5.34,-32.092c-1.778,-0.54 -3.634,-0.862 -5.516,-0.958l-1.171,-0.061l-0.224,-1.15c-0.086,-0.443 -0.223,-1.078 -0.422,-1.83c-4.232,-15.942 -21.294,-24.692 -28.434,-27.714c-28.067,-11.88 -55.257,4.641 -55.53,4.809c-8.142,5.047 -12.63,10.582 -20.928,22.009c-16.75,23.07 -25.172,37.172 -31.323,47.469c-6.665,11.159 -10.687,17.895 -19.643,26.759c-21.581,21.359 -43.857,29.09 -58.743,31.813c-11.636,2.129 -47.045,8.607 -63.992,-12.45c-7.309,-9.083 -13.7,-26.918 -2.638,-60.304c2.493,-7.525 5.595,-16.889 12.98,-26.97c2.866,-3.911 6.001,-7.43 8.768,-10.535c4.365,-4.9 8.488,-9.528 7.462,-11.571c-0.281,-0.558 -0.984,-1.01 -2.044,-1.317c-8.391,2.69 -16.059,6.633 -22.796,11.72c-32.698,24.691 -38.871,70.23 -30.769,102.094c8.561,33.667 25.787,48.791 38.73,55.549c12.487,6.522 24.488,6.382 48.395,6.1l1.186,-0.014c22.321,-0.26 39.662,-4.104 65.91,-9.923c18.25,-4.045 22.8,-6.085 25.244,-7.18c13.011,-5.835 25.42,-15.705 36.928,-29.356c7.898,-9.37 11.777,-17.068 15.2,-23.861c4.499,-8.927 8.384,-16.637 19.511,-24.835c13.124,-9.67 21.794,-16.058 34.577,-17.643c1.344,-0.166 2.65,-0.306 3.914,-0.441c6.94,-0.742 12.421,-1.328 15.187,-5.533c0.456,-0.694 0.817,-1.46 1.079,-2.291c-5.381,1.049 -10.598,1.193 -15.544,0.428c-0.094,-0.015 -0.188,-0.029 -0.283,-0.045c-1.471,-0.184 -4.628,-0.641 -7.343,-1.448l-0.638,-0.187c-1.778,-0.518 -2.952,-0.861 -2.576,-2.308l0.001,-0.003c0.386,-1.473 1.614,-1.16 3.313,-0.726c1.732,0.442 4.901,1.251 7.678,1.703c0.345,0.043 0.58,0.069 0.67,0.078c5.952,0.621 11.972,-0.089 16.479,-0.948l1.893,-0.387c3.317,-0.722 5.444,-1.425 5.494,-1.442c6.739,-2.266 10.807,-3.633 12.739,-7.494c1.686,-3.366 1.003,-6.9 0.631,-8.264c-1.95,-7.154 -10.029,-10.315 -13.412,-11.342Z" style="fill:#231f20;"/></g><g id="leg-right-front"><path id="base3" serif:id="base" d="M191.086,274.246l8.204,8.125l-4.266,-20.877c-0,-0 20.036,9.202 20.036,9.202l-6.491,-10.079c-7.534,-11.699 -13.473,-24.154 -17.685,-37.104l0,0c-2.185,-6.718 -3.367,-13.095 -4.418,-18.72l0,-0.001c-1.031,-5.521 -1.978,-10.335 -3.396,-13.541c-1.414,-3.197 -3.414,-5.081 -5.801,-5.718l-0.004,-0.001c-0.683,-0.18 -1.377,-0.266 -2.078,-0.266c-2.144,-0 -4.438,0.868 -6.511,2.173c-2.496,1.57 -4.671,3.724 -5.697,4.752c-8.478,8.492 -9.021,20.246 -9.206,26.599c-0.681,23.37 12.967,45.015 22.911,57.465l5.102,6.388l2.109,-15.52c0,0 7.191,7.123 7.191,7.123Z" style="fill:#f98a31;fill-rule:nonzero;"/><g id="highlights3" serif:id="highlights"><path d="M193.55,271.755l-12.175,-12.057l-0.023,0.141c-0.153,-0.352 -0.235,-0.682 -0.106,-0.799c0.294,-0.247 1.553,0.788 1.87,1.058c1.129,0.906 3.598,2.553 9.233,5.764l-0,0.012l1.201,5.881Z" style="fill:#e56c2c;fill-rule:nonzero;"/><path d="M180.622,265.25l-1.2,8.822c-9.563,-11.963 -22.808,-32.723 -22.149,-55.179c0.165,-5.635 0.47,-15.973 7.622,-23.644c-0.694,3.106 -1.258,6.588 -1.599,10.411c-0.33,3.788 -1.2,16.856 3.752,32.735c3.482,11.128 8.328,18.856 13.574,26.855" style="fill:#e56c2c;fill-rule:nonzero;"/><path d="M190.209,255.429l0.012,0.07c-0.225,-0.353 -0.353,-0.67 -0.235,-0.847c0.376,-0.576 2.845,0.765 5.939,1.729c2.871,0.894 4.965,1.034 6.6,1.118c0.999,1.681 2.035,3.352 3.104,5.011l-15.42,-7.081Z" style="fill:#e56c2c;fill-rule:nonzero;"/></g><path id="outline4" serif:id="outline" d="M191.086,274.246l8.204,8.125l-4.266,-20.877c-0,-0 20.036,9.202 20.036,9.202l-6.491,-10.079c-7.534,-11.699 -13.473,-24.154 -17.685,-37.104l0,0c-2.185,-6.718 -3.367,-13.095 -4.418,-18.72l0,-0.001c-1.031,-5.521 -1.978,-10.335 -3.396,-13.541c-1.414,-3.197 -3.414,-5.081 -5.801,-5.718l-0.004,-0.001c-0.683,-0.18 -1.377,-0.266 -2.078,-0.266c-2.144,0 -4.438,0.868 -6.511,2.173c-2.496,1.57 -4.671,3.724 -5.697,4.752c-8.478,8.492 -9.021,20.246 -9.206,26.599c-0.681,23.37 12.967,45.015 22.911,57.465l5.102,6.388l2.109,-15.52c0,0 7.191,7.123 7.191,7.123Zm2.463,-2.487l-3.336,-16.326l15.414,7.079c-7.699,-11.955 -13.767,-24.683 -18.071,-37.916c-2.237,-6.877 -3.455,-13.403 -4.53,-19.161c-1.62,-8.67 -2.899,-15.517 -6.659,-16.52c-0.386,-0.102 -0.781,-0.149 -1.18,-0.149c-3.847,0 -8.202,4.366 -9.731,5.898c-7.703,7.715 -8.016,18.456 -8.184,24.228c-0.655,22.461 12.59,43.213 22.147,55.179l1.953,-14.373l12.177,12.061Z" style="fill:#231f20;"/></g><g id="leg-right-rear"><path id="base4" serif:id="base" d="M51.964,260.24l-14.846,12.99l20.593,-4.806c-0.398,0.808 -0.8,1.609 -1.203,2.401c-0.563,1.106 -1.138,2.213 -1.721,3.316l-6.389,12.079l20.56,-13.552l0.822,14.606l5.234,-3.946c4.829,-3.643 11.039,-9.994 13.41,-19.454c1.575,-6.284 1.132,-12.936 -1.024,-19.286l-0.059,-0.174l-0.138,-0.298l-0.559,-1.189l0.286,-0.159c0.299,-0.166 0.572,-0.336 0.818,-0.502l0.284,-0.192l0.241,-0.243c6.829,-6.887 8.745,-17.144 4.619,-25.311c-3.429,-6.789 -10.642,-11.263 -18.9,-11.562c-16.59,-0.64 -31.067,10.372 -33.81,25.448c-1.972,10.835 2.577,22.346 11.782,29.834Z" style="fill:#f98a31;fill-rule:nonzero;"/><g id="highlights4" serif:id="highlights"><path d="M85.025,263.025c-2.129,8.528 -7.763,14.221 -12.116,17.503l-0.105,-1.882c2.799,-4.012 6.351,-10.505 7.398,-19.022c0.483,-3.963 1.188,-9.68 -1.352,-15.985c-1.929,-4.8 -6.141,-10.951 -8.858,-13.068c-0.4,-0.307 -1.964,-1.459 -3.235,-3.529c-0.211,-0.341 -0.376,-0.659 -0.529,-0.942c4.047,1.589 7.752,4.036 10.563,7.282c1.541,1.741 2.859,3.693 4.035,5.764c0.576,1.035 1.176,2.117 1.682,3.211l1.517,3.235l0.059,0.118c1.941,5.705 2.364,11.668 0.941,17.315" style="fill:#e56c2c;fill-rule:nonzero;"/><path d="M85.79,239.369c-0.165,0.106 -0.353,0.224 -0.553,0.341c-0.412,-0.788 -0.835,-1.564 -1.282,-2.352c-1.271,-2.212 -2.729,-4.387 -4.47,-6.351c-3.482,-3.977 -8.081,-6.847 -12.986,-8.588c-0.506,-0.177 -1.036,-0.118 -1.471,0.141c0.012,-0.282 0.118,-0.565 0.306,-0.776c0.659,-0.728 2.247,-0.365 3.823,0.154c4.834,1.598 6.058,3.539 9.845,4.952c2.082,0.788 4.529,1.704 7.129,0.975c2.811,-0.775 4.176,-3.023 5.246,-4.598c0.812,5.657 -1.223,11.691 -5.587,16.102" style="fill:#e56c2c;fill-rule:nonzero;"/><path d="M72.027,266.448l-14.15,9.328c0.141,-0.259 0.27,-0.519 0.411,-0.777c-0,-0.012 0.012,-0.023 0.024,-0.036c1.388,-1.634 3.105,-3.294 5.223,-4.798c1.776,-1.271 4.058,-3.27 7.575,-3.611c0.365,-0.036 0.659,-0.072 0.917,-0.106" style="fill:#e56c2c;fill-rule:nonzero;"/><path d="M63.593,263.447l-13.586,3.176c2.776,-2.058 7.035,-4.28 11.893,-3.54c0.517,0.07 1.081,0.189 1.693,0.364" style="fill:#e56c2c;fill-rule:nonzero;"/></g><path id="outline5" serif:id="outline" d="M51.964,260.24l-14.846,12.99l20.593,-4.806c-0.398,0.808 -0.8,1.609 -1.203,2.401c-0.563,1.106 -1.138,2.213 -1.721,3.316l-6.389,12.079l20.56,-13.552l0.822,14.606l5.234,-3.946c4.829,-3.643 11.039,-9.994 13.41,-19.454c1.575,-6.284 1.132,-12.936 -1.024,-19.286l-0.059,-0.174l-0.138,-0.298l-0.559,-1.189l0.286,-0.159c0.299,-0.166 0.572,-0.336 0.818,-0.502l0.284,-0.192l0.241,-0.243c6.829,-6.887 8.745,-17.144 4.619,-25.311c-3.429,-6.789 -10.642,-11.263 -18.9,-11.562c-16.59,-0.64 -31.067,10.372 -33.81,25.448c-1.972,10.835 2.577,22.346 11.782,29.834Zm32.066,-14.647l-1.523,-3.24c-0.502,-1.085 -1.11,-2.169 -1.684,-3.203c-1.179,-2.071 -2.494,-4.031 -4.026,-5.773c-3.029,-3.491 -7.073,-6.048 -11.475,-7.629c-0.918,-0.328 -1.395,-1.339 -1.067,-2.256c0.328,-0.918 1.331,-1.398 2.25,-1.07c4.893,1.733 9.497,4.602 12.983,8.586c1.742,1.966 3.199,4.132 4.472,6.351c0.443,0.79 0.866,1.563 1.271,2.349c0.204,-0.113 0.39,-0.228 0.557,-0.341c5.742,-5.792 7.45,-14.4 3.98,-21.269c-2.879,-5.7 -8.974,-9.393 -15.908,-9.643c-14.794,-0.572 -27.788,9.134 -30.235,22.578c-1.861,10.225 2.89,21.092 12.104,27.681l1.813,1.296l-7.573,6.626l14.05,-3.279l-1.566,3.305c-0.919,1.938 -1.869,3.871 -2.826,5.751c-0.571,1.122 -1.155,2.246 -1.747,3.364l14.23,-9.379l0.796,14.135c4.354,-3.283 9.986,-8.983 12.123,-17.51c1.414,-5.64 0.992,-11.61 -0.943,-17.31l-0.056,-0.12Z" style="fill:#231f20;"/></g><g id="eye-curves"><g><path d="M255.851,145.106c-0.053,0 -3.369,-0.194 -3.423,-0.199c-10.112,-0.936 -15.19,-7.759 -17.791,-16.965c-3.205,-11.341 1.441,-17.805 2.263,-18.815c0.524,-0.643 1.467,-0.74 2.11,-0.217c0.643,0.522 0.74,1.467 0.218,2.109c-0.722,0.887 -4.497,6.224 -1.704,16.108c2.27,8.036 6.864,13.857 15.737,14.804c0.824,0.088 1.422,0.826 1.334,1.649c-0.081,0.771 -0.731,1.343 -1.489,1.343" style="fill:#231f20;fill-rule:nonzero;"/><path d="M244.243,153.421c-0.229,0 -0.46,-0.052 -0.678,-0.162c-3.486,-1.77 -12.056,-7.034 -16.315,-17.694c-3.079,-7.707 -2.615,-14.772 -1.684,-19.342c0.165,-0.811 0.958,-1.333 1.77,-1.17c0.811,0.166 1.335,0.958 1.17,1.77c-0.85,4.168 -1.275,10.61 1.529,17.628c3.881,9.712 11.704,14.517 14.888,16.132c0.738,0.375 1.034,1.277 0.659,2.017c-0.265,0.521 -0.792,0.821 -1.339,0.821" style="fill:#231f20;fill-rule:nonzero;"/><path d="M236.962,164.167c-0.291,0 -0.586,-0.084 -0.845,-0.261c-4.936,-3.367 -13.798,-10.929 -17.681,-23.739c-1.872,-6.173 -2.323,-12.878 -1.3,-19.389c0.128,-0.819 0.892,-1.379 1.714,-1.25c0.818,0.129 1.378,0.896 1.249,1.715c-0.951,6.067 -0.534,12.31 1.208,18.054c3.617,11.929 11.891,18.986 16.502,22.131c0.683,0.467 0.86,1.4 0.393,2.085c-0.29,0.425 -0.761,0.654 -1.24,0.654" style="fill:#231f20;fill-rule:nonzero;"/><path d="M231.248,174.932c-0.27,0 -0.542,-0.072 -0.788,-0.225c-6.121,-3.787 -14.551,-10.757 -19.957,-22.454c-4.542,-9.824 -5.047,-19.062 -4.672,-25.081c0.052,-0.826 0.752,-1.458 1.591,-1.404c0.826,0.052 1.455,0.764 1.403,1.59c-0.353,5.675 0.122,14.381 4.401,23.637c5.362,11.601 14.088,18.238 18.812,21.162c0.705,0.435 0.923,1.36 0.486,2.064c-0.283,0.459 -0.774,0.711 -1.276,0.711" style="fill:#231f20;fill-rule:nonzero;"/></g><path d="M254.144,131.218c-5.201,0 -9.432,-4.231 -9.432,-9.431c-0,-5.202 4.231,-9.432 9.432,-9.432c5.201,0 9.432,4.23 9.432,9.432c-0,5.2 -4.231,9.431 -9.432,9.431" style="fill:#231f20;fill-rule:nonzero;"/><g id="eye"><path d="M295.358,84.557c-5.478,-6.843 -15.481,-7.953 -22.324,-2.475c-6.844,5.477 -7.952,15.481 -2.475,22.324c5.478,6.843 15.481,7.952 22.323,2.475c6.844,-5.478 7.954,-15.481 2.476,-22.324" style="fill:#fff;fill-rule:nonzero;"/><path d="M296.161,103.311c-0.88,1.32 -1.98,2.53 -3.28,3.57c-6.84,5.48 -16.84,4.37 -22.321,-2.48c-5.479,-6.84 -4.37,-16.84 2.471,-22.32c0.359,-0.29 0.73,-0.56 1.109,-0.81c-3.759,5.6 -3.649,13.22 0.791,18.77c5.19,6.48 14.45,7.82 21.23,3.27" style="fill:#eaebec;fill-rule:nonzero;"/><path d="M273.034,82.082l0.01,0l-0.01,0Zm9.909,-1.977c-3.152,0 -6.325,1.029 -8.972,3.148c-2.997,2.399 -4.88,5.824 -5.304,9.644c-0.423,3.82 0.665,7.575 3.063,10.572c2.4,2.997 5.825,4.881 9.644,5.304c3.832,0.426 7.575,-0.664 10.571,-3.063c6.192,-4.956 7.197,-14.024 2.242,-20.216c-2.838,-3.544 -7.022,-5.389 -11.244,-5.389m0.052,31.758c-0.648,0 -1.298,-0.036 -1.951,-0.108c-4.616,-0.512 -8.756,-2.789 -11.656,-6.411c-2.899,-3.623 -4.214,-8.16 -3.703,-12.777c0.512,-4.617 2.789,-8.756 6.412,-11.656c7.481,-5.99 18.442,-4.773 24.432,2.709c5.989,7.483 4.774,18.443 -2.709,24.432c-3.11,2.489 -6.894,3.811 -10.825,3.811" style="fill:#231f20;fill-rule:nonzero;"/><path d="M283.544,85.306c4.012,-3.211 9.874,-2.561 13.085,1.451c3.211,4.01 2.561,9.873 -1.451,13.084c-4.011,3.211 -9.873,2.561 -13.084,-1.451c-3.211,-4.011 -2.561,-9.874 1.45,-13.084" style="fill:#212121;"/><path d="M287.806,86.973c1.375,-1.1 3.379,-0.884 4.474,0.483c1.093,1.367 0.866,3.371 -0.509,4.471c-1.375,1.1 -3.379,0.884 -4.473,-0.483c-1.095,-1.367 -0.867,-3.37 0.508,-4.471" style="fill:#fff;"/><path d="M290.166,94.805c0.581,-0.465 1.428,-0.374 1.891,0.204c0.462,0.578 0.366,1.424 -0.215,1.889c-0.581,0.465 -1.428,0.374 -1.891,-0.204c-0.463,-0.577 -0.366,-1.424 0.215,-1.889" style="fill:#fff;"/></g></g></g></svg>