<?xml version="1.0" standalone="no"?>
<!DOCTYPE svg PUBLIC "-//W3C//DTD SVG 20010904//EN" "http://www.w3.org/TR/2001/REC-SVG-20010904/DTD/svg10.dtd">
<!-- Created using Krita: http://krita.org -->
<svg xmlns="http://www.w3.org/2000/svg" 
    xmlns:xlink="http://www.w3.org/1999/xlink"
    xmlns:krita="http://krita.org/namespaces/svg/krita"
    xmlns:sodipodi="http://sodipodi.sourceforge.net/DTD/sodipodi-0.dtd"
    width="288pt"
    height="288pt"
    viewBox="0 0 288 288">
<defs/>
<path id="shape0" transform="translate(1.17818190321159, 0.756363690952114)" fill="#c0fdf1" fill-opacity="0.486274509803922" fill-rule="evenodd" d="M146.977 73.0909L145.741 59.1612L141.678 45.5127L133.227 31.0788L123.85 19.9903L112.553 11.1467L99.7479 4.85818L85.12 0.96L73.3188 0L61.663 1.30424L46.017 5.44L34.6279 10.5891L23.5927 19.103L13.3818 30.6036L5.39636 46.0364L2.22061 53.9685L0 67.4861L0.00484849 81.3382L1.61455 91.8449L6.07515 104.126L13.5467 117.779L25.5079 129.867L35.0885 137.086L48.7273 143.821L56.1455 146.061L65.0909 146.502L69.6776 147.607L80.5721 147.719L92.7321 143.19L105.469 135.859L123.806 121.876L139.408 103.253L146.337 92.1794L147.641 84.9067L147.593 78.8849C147.59 78.8428 147.384 76.9115 146.977 73.0909Z"/><path id="shape1" transform="translate(69.8060614634888, 78.5915161168551)" fill="#f7a41d" fill-rule="evenodd" d="M84.5576 0L90.8024 6.75394L102.667 31.2194L108.858 44.4606L109.847 51.8788L109.808 58.4921L107.19 61.1297L106.385 62.5891L107.413 77.9248L107.278 83.3261L114.284 79.5636L121.299 74.9576L123.864 85.1685L123.074 112.805L123.612 118.497L128.388 145.998L129.222 163.874L128.446 178.288L125.004 182.085L116.126 184.611L110.424 183.699L95.3988 170.303L82.8558 161.004L74.3321 153.188L70.6521 147.307L70.2933 147.69L69.2073 148.553L65.0618 156.921L56.9212 165.678L55.4861 166.71L59.84 178.555L60.3927 187.316L56.3685 192.024L50.5406 195.559L46.7782 195.248L39.4473 191.845L30.2303 185.178L21.217 176.16L15.7818 165.867L15.5103 160.592L18.2158 149.668L22.7103 141.101L28.9503 129.658L30.2739 127.564L67.0642 107.445L65.9297 106.693L57.6485 104.987L52.6255 103.789L47.5345 100.23L44.64 96.4242L42.9285 91.2024L42.177 87.2218L38.2691 83.6994L33.5418 81.1733L27.4376 82.0897L23.9273 84.1455L23.0448 82.8073L21.3479 80.9794L18.9479 80.7127L14.8994 82.5648L10.1479 86.1818L8.49455 86.4145L2.90424 81.1685L0 75.8788L0.460606 74.3952L7.52485 75.9418L21.8812 74.7103L33.4545 68.9503L50.6812 58.2303L63.4133 46.9285L72.3733 37.4303L77.4739 30.1818L82.9964 19.3939L84.8242 13.76L85.6727 7.58303C85.6921 7.50222 85.3204 4.97455 84.5576 0Z"/><path id="shape2" transform="translate(45.421110288151, 183.204934975512)" fill="#303f42" fill-rule="evenodd" d="M32.4738 2.71872L11.636 20.6664L2.58844 19.9704L0 14.9307L3.29812 10.5595L6.27397 12.5616L7.6419 12.9045L12.1228 10.1241L19.0345 8.92069L21.4206 6.0614L22.0857 2.38959L26.8992 1.70734L30.5024 0C30.4682 0.0137136 31.1253 0.919953 32.4738 2.71872Z"/><path id="shape3" transform="translate(84.3111253505084, 179.183425946716)" fill="#303f42" fill-rule="evenodd" d="M0.311984 21.928L6.59966 19.1305L12.9662 16.7271L19.0139 18.3145L28.082 8.94811L31.9904 2.76329L32.988 0L35.2199 1.14508L39.8174 4.17579L49.53 5.61914L51.8545 6.92536L6.0854 32.2749L3.47982 30.3173L0 24.825C0.00685679 24.7656 0.110851 23.7999 0.311984 21.928Z"/><path id="shape4" transform="translate(148.302150053675, 53.7812568576654)" fill="#303f42" fill-rule="evenodd" d="M0 16.0483L15.1981 1.76562L23.9576 0L51.4191 11.7491L56.3594 14.4438L61.07 21.976L85.1374 70.7827L85.7819 77.1081L83.7797 82.2644L78.416 87.0041L81.601 88.6326C84.106 88.9229 86.2476 89.692 88.0258 90.9399C89.804 92.1879 91.4725 93.8712 93.0313 95.99L92.8358 103.745L90.1651 112.179L85.2077 117.616L76.1121 122.543L69.9684 123.65L63.3036 122.731L59.5324 119.413L58.3119 112.275L58.2296 106.663L52.6653 111.089L48.9078 112.121L45.3354 112.158L43.8612 102.48L42.5413 99.7201L28.4814 109.014L28.5568 92.8016L27.3912 86.3425L31.2173 82.8729L31.4127 70.9867L19.5419 46.789L11.9205 30.2882L5.73571 24.8507L3.91523 21.652L1.61135 19.2624L0.102852 18.3505C0.0548543 18.3573 0.0205704 17.59 0 16.0483Z"/><path id="shape5" transform="translate(65.486063819257, 72.6836399299954)" fill="#f0ce41" fill-rule="evenodd" d="M82.8267 0L85.5564 0.945455L88.3588 6.99152L89.7697 16.2424L87.6558 23.8109L82.5358 34.8218L75.8739 44.5382L68.1358 52.3782L59.9515 60.16L47.3358 69.3139L37.9297 74.5358L24.8291 81.0133L15.8642 81.8376L5.49333 81.28L1.89576 78.2594L0 75.3649L2.47758 74.7976L9.58546 76.0194L15.9612 75.4667L25.7697 72.6982L34.8509 67.6606L46.6958 60.1309L62.6861 46.5745L75.5103 30.8558L81.9103 20.0727L83.3988 12.5042L83.3358 5.40121C83.3487 5.39152 83.179 3.59111 82.8267 0Z"/><path id="shape6" transform="translate(38.2957575375256, 153.282424089406)" fill="#f0ce41" fill-rule="evenodd" d="M79.2048 25.5273L75.0642 19.7479L73.9006 13.7309L73.4885 12.097L66.9479 7.29697L63.3309 6.30788L57.9539 7.92242L54.9188 9.38667L56.7709 13.1927L58.1382 15.7236L54.2836 19.6752L46.4194 25.1442L44.5333 26.177L42.5358 22.1139L39.7236 20.1018L38.1479 19.7624L36.7176 16.1067L39.2194 12.8727L40.577 11.7139L34.4242 6.78788L31.4133 0.673939L29.5661 0L22.3418 1.29939L18.9479 2.12848L19.9321 5.52727L21.7648 6.88L12.4703 14.7103L10.7782 17.6824L7.69455 14.3273L5.36242 13.663L0 20.7952L0.906667 24.0921L2.83152 28.3588L2.64242 31.5685L3.30667 34.8655L12.8873 42.5697L14.8042 42.5576L19.8545 40.0242L24.8824 38.9042L28.5042 36.7709L29.44 32.543L31.1515 31.8836L37.5418 30.0315L40.0388 32.2812L41.4497 34.6861L39.6315 37.8715L42.6473 42.3612L45.343 45.2461L48.1455 46.783L58.943 42.6667L63.8691 43.9176L65.8861 43.5685L74.5891 34.5648L78.2836 29.0182C78.2255 29.0246 78.5325 27.861 79.2048 25.5273Z"/><path id="shape7" transform="translate(173.137450145016, 258.003976370036)" fill="#f0ce41" fill-rule="evenodd" d="M8.307 5.51629L16.446 4.3952L21.3555 2.25246L23.9028 0L25.665 1.84105L28.3528 9.02354L28.3974 15.1261L17.262 23.5359L9.39723 29.3265L4.27521 29.7619L2.11532 28.9562L0 26.3678L5.99284 11.6943C5.97684 11.6006 6.74823 9.54123 8.307 5.51629Z"/><path id="shape8" transform="translate(96.0744142760712, 266.259555070442)" fill="#f0ce41" fill-rule="evenodd" d="M34.1258 0L36.9474 3.03413L38.641 11.7354L38.065 17.5808L35.8846 20.183L32.1648 21.4686L2.20743 21.3829C-0.0484575 18.4779 -0.575288 16.3774 0.626937 15.0815C1.82916 13.7856 3.76506 12.4279 6.43464 11.0086L14.4879 5.00203L19.2911 7.37791L24.0566 7.96759L28.0781 5.69799C28.1055 5.602 30.1214 3.70267 34.1258 0Z"/><path id="shape9" transform="translate(75.1641655965739, 158.727902699793)" fill="#303f42" fill-rule="evenodd" d="M8.22129 20.5258L21.3075 10.772L20.3544 8.355L18.2322 3.69581L16.1546 0.507403L14.4198 0L6.30825 4.70376L1.31993 8.55042L0 10.6897L1.32679 14.3444L3.52439 15.1021L5.75971 17.3031C5.91513 17.2026 6.73566 18.2768 8.22129 20.5258Z"/><path id="shape10" transform="translate(40.3316568180113, 150.403755916884)" fill="#303f42" fill-rule="evenodd" d="M9.69208 19.7921L13.8987 14.1764L19.2813 9.94235L16.5489 4.7449L15.2392 0.795388L13.8713 0L8.46128 3.45925L2.65015 8.48871L0 11.9308L0.695964 14.6187L4.33006 16.6997L6.52767 18.1362C6.54824 18.1408 7.60304 18.6928 9.69208 19.7921Z"/><path id="shape11" transform="translate(192.126075039493, 56.4872769708681)" fill="#728942" fill-rule="evenodd" d="M14.383 103.788L9.79394 107.766L6.39273 109.512L0.935758 109.019L0.598788 132.983L0 136.755L1.74545 142.552L2.34667 145.388L23.3891 147.448L35.0049 147.019L44.1515 143.747L58.1152 137.158L72.0097 127.229L81.4861 115.823L88.7709 104.279L92.2594 91.2121L94.0667 80.3236L94.8739 68.8594L93.0485 58.6109L88.8376 43.9503L83.8667 33.9624L74.4776 22.377L68.6982 16.6036L59.5321 10.5261L48.3176 4.78545L37.0739 1.15636L30.6909 0L27.2121 0.467879L22.7733 3.60485L20.3079 6.36606L19.8424 7.48606L24.2521 7.85455L30.4364 11.2873L36.303 16.1915L38.703 18.4145L42.9939 15.8521L45.5782 15.1467L46.2182 18.7321L44.9794 23.0618L43.6267 24.72L45.063 25.8824L48.9927 27.4776L52.857 27.9673L57.8024 27.737L59.2133 27.9794L60.3042 28.5249L64.2461 36.3915L65.3346 38.8861L64.0933 41.417L61.3236 43.1915L57.0424 45.2303L52.3685 45.1115L54.5552 48.7236L60.143 52.2024L67.9927 53.2133L70.0364 53.5721L72.4049 59.3976L71.9855 67.1285L67.0109 70.2946L62.6133 70.4691L57.5491 68.743L57.8933 70.4133L61.263 76.0255L65.0376 79.617L69.5418 82.7903L68.5455 85.3746L63.8036 91.4182L59.3067 91.6703L58.1309 91.5467L54.8509 88.2061L53.0642 79.2849L50.1891 83.5806L48.2182 91.7988L49.4509 94.137L48.8861 104.513L41.8752 114.232L32.1103 120.093L24.9661 121.172L18.5733 119.652L14.9685 114.515L14.0303 109.102C14.019 108.998 14.1366 107.227 14.383 103.788Z"/><path id="shape12" transform="translate(9.84000009075471, 46.1187883041433)" fill="#9ca76c" fill-rule="evenodd" d="M138.715 28.2909L135.001 25.4642L128.684 24.6739L134.444 18.2788L133.057 17.6339L118.589 18.6521L113.406 18.1818L111.573 15.8448L118.332 12.7418L124.189 7.23394L124.81 4.56242L119.258 6.26424L102.259 6.84606L94.5261 4.87273L87.1661 1.06667L60.6352 0.266667L57.9539 0L54.4339 3.84485L39.1612 16.2618L25.7406 23.3164L10.5794 28.4267L2.97697 31.0109L0 38.7491L1.25576 47.4909L1.91515 52.1552L5.15394 56.0727L7.02545 58.303L9.00848 62.6133L15.68 67.0933L22.943 70.497L29.3188 72.257L34.9527 76.3685L43.9515 84.7079L50.8024 88.0679L57.6 91.7612L61.44 96.2012L71.7884 101.525L80.9115 99.0691L92.1552 93.8036L103.491 85.8715L115.893 75.9855L122.681 68.3685L133.678 54.56L138.109 45.2412L139.064 37.8133L138.739 31.5782C138.726 31.5232 138.718 30.4275 138.715 28.2909Z"/><path id="shape13" transform="translate(67.8860612321742, 60.4412126786638)" fill="#edf7ce" fill-rule="evenodd" d="M20.4606 0L8.34424 4.07273L0.169697 9.39636L0 14.5164L3.30182 20.1552L8.48485 23.2145L14.5018 23.2339L22.2109 20.3733L25.28 16.9115L26.4679 10.0558L24.9939 4.10667L23.0061 1.6C22.9608 1.49657 22.1123 0.963232 20.4606 0Z"/><path id="shape14" transform="translate(66.6943134751559, 140.940527585539)" fill="#dbcb88" fill-rule="evenodd" d="M15.4432 6.78823L8.31558 3.81838L2.63044 0L0.763675 3.30926L0 6.02455L0.763675 6.36396L5.51543 7.5519L11.6248 7.46705C11.6248 7.46705 12.8976 7.24077 15.4432 6.78823Z"/><path id="shape0" transform="translate(0.107878787832394, -0.0284495366910976)" fill="#000000" fill-rule="evenodd" d="M148.804 79.2321C148.898 77.8284 149.206 72.7981 149.182 70.6406C149.158 68.483 148.624 64.1557 148.304 62.7957C148.091 61.8891 147.409 58.8208 146.258 53.5909C144.582 48.9396 143.638 46.1889 143.424 45.3388C143.104 44.0636 138.796 35.8357 137.572 34.3278C136.348 32.82 131.388 25.9545 130.057 24.7739C129.17 23.9868 126.049 21.1658 120.695 16.3109C115.308 12.0167 111.512 9.38481 109.308 8.41512C106.001 6.96057 101.672 4.92663 98.9297 4.12663C96.1879 3.32663 92.343 1.85269 90.7891 1.45754C89.2352 1.06239 81.4436 -0.0285202 74.6315 0.000570748C67.8194 0.0296617 56.4982 1.9933 54.36 2.59693C52.9345 2.99936 48.7325 4.55815 41.7539 7.2733C37.8881 9.28057 35.0364 10.9032 33.1988 12.1412C30.4424 13.9981 27.0533 17.1084 24.5758 19.1545C22.0982 21.2006 19.6727 23.8575 18.4994 25.1206C17.3261 26.3836 14.0848 31.0381 12.463 33.106C10.8412 35.1739 7.70667 41.3703 6.87758 43.1618C6.04848 44.9533 5.02788 47.6345 4.13333 50.2091C3.23879 52.7836 2.32485 55.106 1.61212 58.3303C0.899394 61.5545 0.271515 64.2091 0.181818 66.34C0.12202 67.7606 0.0614141 71.1238 0 76.4297C0.139798 81.5044 0.465051 85.5771 0.975758 88.6478C1.74182 93.2539 5.57697 104.044 6.17576 105.734C6.77455 107.424 10.5685 114.088 12.1152 116.539C13.6618 118.99 19.0582 125.465 21.0121 127.113C22.9661 128.762 27.3927 133.239 30.6218 135.382C33.8509 137.525 40.5055 141.681 42.9782 142.851C45.4509 144.022 50.4715 146.005 52.7867 146.388C55.1018 146.771 59.9721 148.073 63.0339 148.19C65.0752 148.267 67.2255 148.236 69.4848 148.095L66.2339 146.488L58.8012 146.182L54.3479 145.363C50.3834 143.55 47.7871 142.541 46.5588 142.338C44.7164 142.032 38.6024 138.076 37.1236 137.555C36.1378 137.207 33.6828 135.44 29.7588 132.253L23.5345 126.681L18.2012 120.964L12.783 113.713C9.51677 107.609 7.65253 103.983 7.1903 102.836C6.49697 101.115 3.33576 92.1545 3.15152 90.5836C2.96727 89.0127 1.88364 80.0818 1.90788 77.7472C1.93212 75.4127 1.65818 70.1788 1.80848 68.7097C1.90869 67.7303 2.87232 62.5553 4.69939 53.1848C7.30626 47.3101 8.96848 43.5678 9.68606 41.9581C10.4036 40.3484 12.4311 36.7388 15.7685 31.1291L23.6594 22.2612C27.6093 18.5505 30.4117 16.1238 32.0667 14.9812C34.5491 13.2672 42.6594 8.35209 51.4376 5.87209C60.2158 3.39209 70.2061 1.85269 72.2448 2.04178C74.2836 2.23087 83.4594 1.76299 85.8715 2.51451C88.2836 3.26603 93.1927 4.33633 96.657 5.37148C98.9665 6.06158 103.354 7.88461 109.821 10.8406C115.606 14.3186 118.987 16.6951 119.961 17.9703C121.423 19.883 127.855 24.9836 129.617 27.2018C131.379 29.42 136.444 36.2321 137.059 37.74C137.675 39.2478 141.961 45.5497 143.038 49.4697C144.114 53.3897 145.903 59.2854 146.434 64.0248C146.965 68.7642 147.375 72.1509 147.149 73.7703C146.999 74.8499 147.064 75.9602 147.345 77.1012C147.573 77.7719 148.059 78.4822 148.804 79.2321Z"/><path id="shape15" transform="translate(8.4769702702519, 45.1869822070584)" fill="#000000" fill-rule="evenodd" d="M140.406 29.3772L137.633 25.2837L133.529 24.9032L132.689 24.2175L136.042 20.3777L137.461 17.1344C134.755 17.8407 132.239 18.2201 129.912 18.2726C126.422 18.3515 120.203 18.5092 117.957 18.5298C116.46 18.5435 115.14 18.0772 113.997 17.131C116.674 16.6099 118.617 15.8499 119.826 14.8511C121.035 13.8523 123.382 11.8581 126.868 8.86855L128.208 5.15902L127.944 3.81509C124.829 5.19788 122.345 5.90755 120.494 5.94412C117.717 5.99898 106.527 6.13611 103.668 6.56466C101.761 6.85036 100.318 6.76694 99.3375 6.31439C92.5859 2.9797 88.6089 1.25636 87.4067 1.14437C85.6034 0.976376 76.5318 0.0129969 73.1926 0.386692C69.8533 0.760387 64.4056 -0.213277 61.8309 0.0438525C59.2561 0.300982 58.7247 0.163846 56.1774 3.10541C53.6301 6.04697 47.9219 11.1347 44.9597 13.1986C41.9976 15.2625 29.7719 21.7593 25.7161 23.6278C21.6603 25.4963 11.5123 28.1293 8.821 29.0104C6.12971 29.8915 3.84983 30.224 2.33105 33.6079C0.81227 36.9917 -0.949926 42.4223 0.603138 46.574C2.1562 50.7258 2.87959 53.4103 4.85778 56.1118C6.17657 57.9129 7.2108 59.3174 7.96048 60.3253L8.77301 62.4201L12.5922 66.7742L22.9391 71.8756L31.3593 74.5429L39.4949 81.77L46.3379 87.0137L53.8898 90.9169L58.1325 93.1231C58.8199 94.5899 59.6401 95.9758 60.5932 97.2809C61.5463 98.586 65.2516 100.566 71.7089 103.221L75.697 102.457L65.345 97.6203L59.9144 92.1897L62.1206 92.02L67.3266 93.1282L81.8116 91.3386C85.9074 90.6278 88.6626 89.5581 90.0774 88.1296C91.4922 86.7011 92.9927 85.2395 94.5789 83.7447L91.3219 83.8681C89.4683 85.5298 87.8158 86.7937 86.3645 87.66C84.9131 88.5262 81.231 89.6587 75.3182 91.0575L63.3497 90.7318L55.2689 89.5696L48.6864 86.5114L42.5119 81.9791L37.6915 76.8125L31.853 71.9339L23.5254 70.3534L16.3875 67.0073L11.4094 63.4692L9.18441 59.8385L13.3396 59.0671L16.4595 57.6443L20.0867 60.2191L21.7221 62.2658L23.2546 59.5882L26.3881 59.0466L33.7557 65.4062L35.3739 59.3791L44.5518 59.3277L55.5158 57.6203L66.5963 55.6696L73.1206 53.5954L74.156 54.4114L76.2301 58.786L78.1809 61.0625L80.1659 57.3495L82.7269 54.1131L87.465 53.2457L89.8134 51.8161L91.3322 55.0696L93.0567 58.0592L94.0338 53.8217L96.0291 51.2744C98.6119 50.5361 100.404 49.5145 101.405 48.2094C102.406 46.9043 103.782 44.733 105.533 41.6954C105.501 39.4921 104.576 38.3105 102.759 38.1505C100.942 37.9905 99.2724 38.1573 97.7502 38.651L98.1924 39.9847L100.507 40.8692L101.768 42.5148L100.527 45.9638L96.9994 48.7991L94.2361 50.2596L92.8681 52.92L92.4499 54.4319L90.5883 50.3247L85.6308 52.4572L80.9956 53.2354L78.0712 57.4386L73.1583 51.9635C71.9218 51.6252 70.5139 51.7566 68.9345 52.3578C67.3552 52.9589 65.4547 53.664 63.2331 54.4731L48.8784 57.1095L38.0447 57.9563L34.9111 57.3392L32.9089 60.867L32.5626 62.2418L27.2452 57.6821L25.507 55.817L21.8729 58.2272L20.625 58.7791L16.9532 56.0501L14.8756 55.8993L8.50902 58.3609L4.21324 52.2652L2.23505 40.6292L4.6315 32.9907C7.57992 31.1508 10.2484 30.0446 12.6368 29.6721C15.0253 29.2995 20.0844 27.8321 27.8143 25.27L43.6467 16.4282L54.8438 7.17149L59.3933 2.40602C67.3517 2.38316 72.5092 2.31916 74.8656 2.21403C77.2221 2.10889 81.1419 2.20031 86.625 2.4883C89.93 4.41277 92.2236 5.58986 93.5058 6.01955C94.788 6.44924 98.0245 7.54747 103.215 9.31424C108.07 8.71312 111.24 8.31086 112.725 8.10744C114.211 7.90402 117.347 7.86288 122.133 7.98402L124.783 7.21949L121.135 11.0216L115.574 14.8682L111.659 16.531L110.751 17.0076C112.858 19.028 114.499 20.1331 115.674 20.3228C117.436 20.6074 122.421 20.6554 124.163 20.2954C125.324 20.0554 128.03 20.0165 132.281 20.1788L134.396 19.3046L130.077 24.2175L127.649 25.6814L130.807 27.5362L135.367 27.8447C135.876 28.2401 137.556 28.751 140.406 29.3772Z"/><path id="shape16" transform="translate(17.2311102039893, 85.9121872692881)" fill="#000000" fill-rule="evenodd" d="M1.51365 0C-0.111412 0.875384 -0.427968 1.64106 0.563982 2.29703C1.55593 2.95299 2.71244 3.49811 4.03352 3.93237L6.08027 6.06826L7.08479 6.46596L6.65281 3.49011L4.54092 1.21365C4.02895 1.01709 3.01986 0.61254 1.51365 0Z"/><path id="shape17" transform="translate(66.9139703920509, 58.7090196396207)" fill="#000000" fill-rule="evenodd" d="M1.17398 13.1845C2.34878 11.6074 3.91899 10.3595 5.8846 9.44065C8.83302 8.06243 10.1187 6.08425 14.1093 5.19629C18.1 4.30834 17.452 3.95864 20.1707 3.06383C21.9832 2.46729 23.2106 2.18502 23.8528 2.21701L23.4037 0.70852C22.8872 -0.0868683 21.8129 -0.212576 20.181 0.331396C17.7331 1.14735 16.3172 1.76789 13.8488 2.90269C11.3803 4.03749 8.60332 5.02487 6.48457 6.28995C5.07207 7.13333 3.66757 8.03043 2.27107 8.98124L0.0803251 10.5754C-0.177947 11.2131 0.186605 12.0828 1.17398 13.1845Z"/><path id="shape18" transform="translate(67.1914283170575, 59.5701029529317)" fill="#000000" fill-rule="evenodd" d="M22.9291 0C24.625 1.33707 25.6673 2.793 26.0558 4.36778C26.6386 6.72994 28.0546 9.03725 27.7426 11.5331C27.5346 13.197 27.0946 15.4541 26.4227 18.3042L23.1794 22.0446C21.4126 23.3611 19.7396 24.2262 18.1602 24.6399C15.7912 25.2604 15.0027 25.4078 12.2599 25.1164C9.51723 24.825 7.58361 24.6365 5.626 23.2411C4.32092 22.3109 2.91071 20.8104 1.39536 18.7396L0.0377124 14.6221L0 10.2338L1.41936 9.85664C1.12223 11.0909 1.03995 12.2794 1.17251 13.4222C1.30508 14.565 1.95419 16.4037 3.11984 18.9385L7.37448 22.6103C9.75836 23.232 11.5903 23.5165 12.8702 23.4639C14.7901 23.3851 17.334 23.3165 19.6584 22.1372C21.2081 21.3509 22.8708 19.8573 24.6467 17.6562C25.7484 16.4426 26.2215 14.9787 26.0661 13.2645C25.833 10.6932 25.905 9.91149 24.9587 7.61104C24.3279 6.0774 23.6137 4.37121 22.816 2.49244L20.4298 0.905097C20.5532 0.781674 21.3863 0.479976 22.9291 0Z"/><path id="shape19" transform="translate(79.8524964995659, 67.8719650173629)" fill="#000000" fill-rule="evenodd" d="M2.47187 0L0.373695 1.87533L0 5.94484L0.253701 9.55494L0.606826 11.8828L2.46502 13.6416L3.97008 11.972L4.17236 7.07964L3.9358 1.96104C3.9358 1.85591 3.44782 1.20222 2.47187 0Z"/><path id="shape20" transform="translate(66.4886070396624, 74.4013190556795)" fill="#000000" fill-rule="evenodd" d="M81.2016 1.72451C81.5833 4.78721 81.7375 6.94482 81.6644 8.19732C81.5547 10.0761 80.893 14.965 80.2828 16.8403C79.6725 18.7156 75.0956 26.4432 73.6282 28.8294C72.1609 31.2156 63.9293 41.2334 61.2003 44.2058C59.381 46.1874 54.4921 50.4523 46.5336 57.0005L31.5138 66.5692L17.5191 72.6066L7.00764 73.69L1.76905 72.5929L0.397694 72.1301L0 73.7585L5.41001 74.5642L13.8542 74.8591L30.355 69.5211L42.1933 61.8826L60.3706 47.6307C69.5153 37.3661 74.4362 31.627 75.1333 30.4133C76.179 28.5929 82.2232 19.4767 82.5866 17.1523C82.8289 15.6027 82.9706 12.4382 83.0118 7.65906L82.3604 2.70485e-05C82.3741 -0.00454415 81.9878 0.570284 81.2016 1.72451Z"/><path id="shape21" transform="translate(64.2035807890162, 71.3020756906907)" fill="#000000" fill-rule="evenodd" d="M2.13246 75.7127L5.17688 80.4919L12.0371 81.9867C18.839 82.1032 23.0434 81.893 24.6502 81.3558C27.0603 80.5502 44.8194 72.2123 46.5782 70.9849C47.7507 70.1667 50.6283 67.9725 55.2109 64.4024C61.1055 59.9112 64.7464 56.9605 66.1338 55.5503C68.2148 53.435 74.1734 48.3301 75.7984 45.8377C77.4235 43.3452 80.9513 38.6312 82.3741 36.1387C83.3226 34.4771 85.3568 30.5116 88.4766 24.2422C89.9714 18.3979 90.4171 14.6267 89.8137 12.9285C89.2103 11.2303 88.6252 9.02697 88.0584 6.31853L86.183 2.76672L84.294 1.79648L85.2128 0L88.5966 3.07527L91.7267 11.2931C92.2273 15.6472 92.177 18.5831 91.5759 20.1007C90.6742 22.3771 88.8469 29.2374 87.2218 31.8738C86.1385 33.6314 83.0563 38.5295 77.9754 46.5679L72.178 52.2968C65.3921 58.8884 61.4243 62.6791 60.2746 63.6688C58.5502 65.1532 47.1679 72.6889 45.4537 73.7585C43.7395 74.8282 40.0437 76.7172 36.3101 78.74C32.5766 80.7627 26.9918 82.7341 24.897 83.2689C22.8023 83.8037 19.7407 83.67 17.4917 84.0917C15.9923 84.3728 12.8976 84.2528 8.20758 83.7317L3.74381 81.0439L0 76.5012C0.845671 76.323 1.55649 76.0601 2.13246 75.7127Z"/><path id="shape22" transform="translate(68.6999251175954, 152.184810540085)" fill="#000000" fill-rule="evenodd" d="M1.86848 1.21708L3.34269 4.92318L7.12421 9.5618L10.8269 11.6086L11.4611 12.4417L9.29781 13.9467L5.43058 10.6829L1.05937 5.00203L0 0C0.116565 0.303984 0.739391 0.709678 1.86848 1.21708Z"/><path id="shape23" transform="translate(57.1873693601841, 152.728211399986)" fill="#000000" fill-rule="evenodd" d="M11.684 0C8.81555 0.0937095 6.62938 0.284557 5.12545 0.572542C3.62153 0.860528 2.2936 1.16794 1.14166 1.49478L0 2.84557L0.819387 4.45349L2.729 3.03756C4.62834 2.5873 6.22368 2.2696 7.51505 2.08447C8.80641 1.89933 10.3046 1.86848 12.0097 1.9919C12.7068 2.01933 12.5982 1.35536 11.684 0Z"/><path id="shape24" transform="translate(67.0628598539899, 183.108317914751)" fill="#000000" fill-rule="evenodd" d="M9.54466 0.501176C8.35387 0.887442 7.03393 1.4577 5.58486 2.21195C4.5152 2.77877 3.31641 3.11476 1.98848 3.21989C0.660544 3.32503 -0.00227971 3.15933 5.89072e-06 2.72278L1.23766 1.07372L3.9838 1.08057L6.82252 0.189192C7.34363 -0.14222 8.25101 -0.0382253 9.54466 0.501176Z"/><path id="shape25" transform="translate(36.7749363569728, 158.522740849124)" fill="#000000" fill-rule="evenodd" d="M21.9329 3.90269L25.3682 1.41025C25.935 0.0571721 25.5065 -0.322237 24.0825 0.272018C21.9466 1.1634 20.8633 1.37939 19.0736 3.67299C17.8806 5.20205 16.6463 6.46827 15.371 7.47165L12.9505 9.77211C12.5231 10.7686 12.346 11.8954 12.4191 13.1525C12.4923 14.4096 12.834 15.8301 13.4442 17.414L14.9733 20.2081L17.2566 18.062L20.1742 15.1547C25.0265 14.7296 28.0469 14.3833 29.2354 14.1159C30.4239 13.8485 31.3382 14.0999 31.9781 14.8701L32.8798 23.0606L30.1302 25.3302L29.3108 29.122L27.4286 31.7858L22.4403 33.4966L19.5639 34.2543L16.0052 36.8633L5.80232 29.7562L4.73609 25.7484L6.10402 23.6434L2.24365 16.766L4.88351 12.7857L7.6948 9.44641C6.99312 7.46708 6.28687 7.05567 5.57605 8.21218C4.86523 9.3687 3.28474 11.6634 0.834574 15.0964C-0.141376 15.3844 -0.26137 16.3055 0.474593 17.8597C1.57854 20.191 3.10417 20.4584 3.11789 22.2583C3.1316 24.0582 2.6242 25.4776 3.16931 27.8706C3.53272 29.466 5.50062 31.587 9.07301 34.2337L15.5493 38.3409C17.1537 37.4633 18.6645 36.7742 20.0816 36.2736C22.2072 35.5228 23.3763 36.109 25.8619 35.18C27.5189 34.5606 29.3943 33.3515 31.4879 31.5527C31.0307 29.8591 30.9839 28.4112 31.3473 27.2089C31.7107 26.0067 32.4672 25.0559 33.6169 24.3565C34.7071 23.2777 35.0717 22.0915 34.7106 20.7978C34.3494 19.5042 33.8832 16.9455 33.3118 13.1216C33.7483 11.8691 32.5404 11.5469 29.688 12.1548C26.8355 12.7628 23.838 13.3719 20.6953 13.9822L16.3926 16.6975L14.2567 13.5399C14.3687 11.4189 15.0407 9.9321 16.2726 9.07957C18.1205 7.80078 18.4702 7.57107 21.9329 3.90269Z"/><path id="shape26" transform="translate(39.4329802223919, 149.801590460996)" fill="#000000" fill-rule="evenodd" d="M21.2394 9.9874L18.7881 6.4973L18.0269 3.91571L16.4636 0.981006C15.2042 -0.356069 13.6706 -0.326356 11.8627 1.07014C10.0548 2.46664 8.15431 4.06885 6.16127 5.87676C3.24484 8.18521 1.48836 9.90741 0.89182 11.0433C-0.00299101 12.7473 -0.314975 13.3678 0.377561 14.6877C0.839252 15.5677 2.06433 16.3105 4.0528 16.9162L6.21612 19.0692L9.58623 21.4794L10.6113 22.7925L10.6559 19.9332L6.93266 17.211L3.70311 15.3426L1.76606 13.4535C2.16376 11.6296 3.13513 10.1165 4.6802 8.91432C6.99779 7.11098 10.481 3.98085 12.2912 3.00033C14.1014 2.01981 15.1094 0.141049 15.6579 2.17066C16.0236 3.52373 16.5539 5.2745 17.2487 7.42296L19.1069 10.4742C19.5206 10.9542 20.2314 10.7919 21.2394 9.9874Z"/><path id="shape27" transform="translate(81.5649833307241, 165.951537057026)" fill="#000000" fill-rule="evenodd" d="M0 13.0245C1.9439 12.0714 3.99751 11.0669 5.72542 9.69208C6.87736 8.77555 9.17782 7.19049 12.6268 4.93689L15.0198 2.23531L17.574 0L18.3659 2.06047C17.3145 2.24103 16.166 2.96899 14.9204 4.24435C13.6747 5.51972 11.6371 7.20192 8.80755 9.29095C6.72994 10.772 5.06717 11.8771 3.81923 12.6062C2.5713 13.3353 1.90505 13.8884 1.82048 14.2656C1.49821 14.485 0.891383 14.0713 0 13.0245Z"/><path id="shape28" transform="translate(74.0457977979891, 158.014798945529)" fill="#000000" fill-rule="evenodd" d="M23.0558 10.5046L21.0596 7.80989L19.75 4.17579L18.7283 1.42964L16.3182 0C15.4679 0.329126 14.0977 0.882241 12.2075 1.65934C9.37223 2.825 8.27858 3.85009 6.50267 5.38944C5.31873 6.41567 4.3702 7.0625 3.6571 7.32991L0.900666 10.2749C-0.0387148 10.748 -0.243276 11.5571 0.286983 12.7022C0.817242 13.8473 1.64463 14.8724 2.76914 15.7775C4.26621 15.6563 5.2753 16.2403 5.79642 17.5294C6.31753 18.8185 6.90836 19.7624 7.5689 20.3612L8.81683 21.4789L9.85564 20.4778L7.73346 17.8071L4.65476 14.8895C3.54625 15.0884 2.80343 14.5673 2.4263 13.3262C2.04918 12.0851 2.15774 10.8646 2.752 9.66465L10.5962 4.5152C13.0258 2.04904 14.8165 1.0948 15.9685 1.65249C17.1204 2.21017 18.0118 3.19755 18.6426 4.61462L20.2702 8.439C21.3806 10.6092 22.092 11.6434 22.4044 11.5417C22.6933 11.2958 22.9104 10.9501 23.0558 10.5046Z"/><path id="shape29" transform="translate(93.3163661060889, 159.070730523057)" fill="#000000" fill-rule="evenodd" d="M19.0667 6.20806C14.1632 2.082 11.2501 0.0133141 10.3273 0.00200096C8.94303 -0.0149687 5.81091 0.062607 4.38061 0.760789C3.42707 1.22624 1.96687 1.94301 0 2.91109L0.472727 5.03715C1.15152 4.31958 1.97414 3.72968 2.94061 3.26746C4.3903 2.57412 5.68242 1.53897 7.53455 1.62867C8.76929 1.68847 10.1293 1.82342 11.6145 2.03352L14.8727 4.42624L18.2352 7.77897C18.4275 7.8323 18.7046 7.30867 19.0667 6.20806Z"/><path id="shape30" transform="translate(74.4301256923094, 173.701822779037)" fill="#000000" fill-rule="evenodd" d="M3.20745 0C2.31533 1.11838 1.68018 2.23111 1.302 3.33818C0.734725 4.99879 0.0123005 5.93939 0.000179308 7.29697C-0.0079015 8.20202 0.257149 9.1402 0.795331 10.1115L4.08745 13.4206C2.32422 15.7269 1.70846 17.3762 2.24018 18.3685C2.7719 19.3608 4.19654 20.6772 6.51412 22.3176L7.95897 24.8897C10.8454 26.2715 12.8842 26.6796 14.0753 26.1139C15.2664 25.5483 17.719 24.6513 21.4329 23.423L28.7759 24.8436C34.898 18.9349 38.203 15.562 38.6911 14.7248C39.4232 13.4691 43.0038 8.88 43.1541 7.5297C43.2543 6.6295 43.2705 5.54182 43.2026 4.26667L41.765 4.75394C41.5905 6.50909 41.2503 7.82465 40.7444 8.70061C40.2386 9.57657 38.3961 12.2707 35.2171 16.783L28.9578 22.5697C26.1392 21.8053 24.1537 21.4537 23.0014 21.5152C21.2729 21.6073 19.4838 22.3055 17.1662 23.2727C14.8487 24.24 12.7905 25.5127 11.3844 24.8533C10.447 24.4137 9.28826 23.6275 7.90806 22.4945L4.32988 17.6024L6.742 13.4448C3.84584 11.0659 2.35735 9.39071 2.27654 8.41939C2.19573 7.44808 2.80584 5.35677 4.10685 2.14545L5.05472 0.732121C5.05634 0.585051 4.44058 0.34101 3.20745 0Z"/><path id="shape31" transform="translate(45.0442823897337, 185.101046778951)" fill="#000000" fill-rule="evenodd" d="M33.688 1.63857L13.3353 18.6468C12.5982 19.12 11.8885 19.3737 11.2063 19.408C10.524 19.4422 7.76988 19.0943 2.94384 18.364C1.51077 17.0064 0.628532 15.7327 0.29712 14.5431C-0.199998 12.7586 -0.0954315 12.2169 0.77881 11.1455C1.36164 10.4313 2.08731 9.52274 2.95584 8.41994L4.68718 9.24447L2.32159 11.5158C1.66905 12.4963 1.43306 13.1991 1.61362 13.6242C1.79419 14.0494 2.41358 15.1196 3.47182 16.8349C7.94359 17.5755 10.4989 17.776 11.1377 17.4366C11.7765 17.0972 13.5793 15.867 16.546 13.746L32.3269 0.0117998C32.5338 -0.0887665 32.9875 0.453492 33.688 1.63857Z"/><path id="shape32" transform="translate(111.482888814782, 115.896089052773)" fill="#000000" fill-rule="evenodd" d="M13.6232 33.8569L15.4162 32.792L15.1124 27.4126L19.2264 18.8073C27.098 10.2546 31.7892 5.6 33.3 4.84347C35.5662 3.70867 46.1154 1.85391 49.2763 2.41274C52.4373 2.97157 54.6761 4.92918 55.7286 7.31877C56.7811 9.70837 63.3979 24.4128 63.631 26.6858C63.7865 28.2011 63.9922 35.5173 64.2482 48.6344C62.5042 51.3725 59.2953 54.6821 54.6212 58.563C49.9472 62.444 45.1074 65.6267 40.102 68.1111C32.6783 69.1556 27.978 69.5179 26.001 69.1979C24.0239 68.8779 18.887 67.7763 10.5903 65.8929C7.1962 63.2394 5.05003 61.2189 4.15179 59.8315C3.25355 58.4442 2.3016 55.4363 1.29593 50.808C2.52559 47.5213 3.95751 45.0757 5.59171 43.4712C8.04302 41.0645 13.5147 34.4477 21.5235 32.4626C29.5322 30.4776 34.9388 30.1485 37.085 30.5564C38.5158 30.8284 41.2596 31.0273 45.3165 31.153C45.0628 29.8593 43.4664 29.0914 40.5271 28.8491C36.1182 28.4857 33.0909 28.1017 30.6087 28.9622C28.954 29.5359 25.393 30.3599 19.9258 31.4341L15.4093 32.7911L13.6463 33.8492L4.07979 43.3204L0.0411408 49.7658L0 51.1337L0.500546 55.4603L5.10831 63.5308L10.5732 67.2437C19.6927 69.4767 25.161 70.6413 26.9781 70.7373C28.7951 70.8332 34.1457 70.351 43.0298 69.2905C56.8302 60.1321 64.223 54.129 65.2081 51.2811C66.6857 47.0093 66.8812 37.5504 66.5109 34.7699C66.1406 31.9895 66.2778 26.199 64.1316 22.0609C61.9854 17.9228 59.8015 10.7849 57.8096 7.23992C55.8177 3.69496 54.3504 0.6334 51.8716 0.39684C49.3929 0.160281 40.5305 -0.929949 34.7159 1.97047C28.9014 4.8709 26.5701 8.1313 23.9679 11.2443C21.3658 14.3573 18.4242 16.3286 16.6346 20.0793C14.845 23.8299 13.8302 24.7213 13.3399 27.2652C13.0131 28.9611 12.8685 30.0759 12.9062 30.6096C12.9408 31.4145 13.1797 32.497 13.6232 33.8569Z"/><path id="shape33" transform="translate(153.179037414236, 76.3572448503199)" fill="#000000" fill-rule="evenodd" d="M0 0L4.59748 3.08556C8.12416 7.98816 10.0726 11.0223 10.4429 12.1879C10.9983 13.9364 16.0552 24.0331 16.7477 26.1278C17.2094 27.5243 20.5532 34.7217 26.7792 47.7198L27.1563 60.6963L23.6354 64.5258L22.0549 63.415L25.689 59.6164C25.7575 53.6533 25.5964 50.0957 25.2056 48.9438C24.6193 47.2159 18.2048 33.2932 17.3065 31.5207C16.7077 30.339 12.9571 22.6937 6.05455 8.5847L1.14851 3.74038C0.638825 3.60324 0.255987 2.35645 0 0Z"/><path id="shape34" transform="translate(83.4951661765756, 185.603096464699)" fill="#000000" fill-rule="evenodd" d="M55.1835 0.593113L7.15163 26.9232L5.2523 26.1792L0.119994 18.5373L0 15.0918L2.00561 13.7684L4.23407 14.0359L1.79991 15.8529C1.62849 16.8883 1.95076 18.0974 2.76672 19.4801C3.58267 20.8629 4.78261 22.464 6.36653 24.2833L52.0191 0C52.0099 0.0274272 53.0647 0.225131 55.1835 0.593113Z"/><path id="shape35" transform="translate(176.708128026624, 116.25267026007)" fill="#000000" fill-rule="evenodd" d="M2.35188 8.05242L10.5217 1.14077C12.3617 -0.262588 13.6004 -0.371153 14.2381 0.815072C14.8758 2.0013 17.4597 6.56906 21.9897 14.5184L22.936 17.0622L23.8445 31.3964L20.567 34.0842L0 47.311L0.339411 45.2505L21.0812 31.4067L21.1566 16.3971L13.6724 3.12238C12.7422 2.16015 11.8131 2.04815 10.8852 2.7864C9.95721 3.52465 7.21906 6.1348 2.67072 10.6169C2.67301 10.5986 2.56673 9.74376 2.35188 8.05242Z"/><path id="shape36" transform="translate(148.168441132166, 53.0835594722459)" fill="#000000" fill-rule="evenodd" d="M0 15.5547L14.1181 2.57474C16.9706 0.853689 19.5019 -0.00455303 21.712 1.81637e-05C23.9222 0.00458936 25.9095 0.304003 27.674 0.898258L50.5517 10.988C53.7401 12.4737 55.8954 13.7902 57.0177 14.9375C58.1399 16.0849 59.4953 18.0642 61.0837 20.8755L86.0596 71.6158C86.9133 74.1917 87.1436 76.2098 86.7504 77.6703C86.3573 79.1308 85.6602 80.9227 84.6591 83.0461L53.8858 112.256C52.8733 113.424 51.3854 113.958 49.4221 113.857C47.4587 113.757 45.7845 113.625 44.3994 113.463L45.0097 111.392C46.7788 112.057 48.4415 112.138 49.998 111.635C51.5545 111.133 52.9533 110.506 54.1944 109.757L83.3666 81.7604C84.45 79.9845 84.9757 78.2657 84.9437 76.6041C84.9117 74.9425 84.7105 73.418 84.3403 72.0306L57.8148 18.9025C56.9668 16.866 55.8469 15.5849 54.4549 15.0592C53.063 14.5336 51.6619 13.7165 50.2517 12.6079L25.2296 2.19762C23.8674 2.06734 22.4297 2.0582 20.9166 2.17019C19.4036 2.28219 17.4963 2.82502 15.1947 3.79868L0.0891383 17.814C0.0479976 17.7865 0.0182848 17.0334 0 15.5547Z"/><path id="shape37" transform="translate(167.513165886615, 66.7877345984112)" fill="#000000" fill-rule="evenodd" d="M0 33.3634L27.6106 6.4951C28.4163 5.33173 28.8465 4.13236 28.9014 2.897C28.9562 1.66163 29.0174 0.695964 29.0848 0C30.2059 0.130279 30.751 0.93081 30.7201 2.40159C30.6739 4.60776 30.4373 6.23282 29.4791 7.12249C28.5208 8.01216 25.2639 10.8012 24.3588 11.6943C23.7554 12.2897 16.0215 19.8864 1.15708 34.4845C0.995949 34.5714 0.610255 34.1977 0 33.3634Z"/><path id="shape38" transform="translate(169.278790070395, 76.0671619159917)" fill="#000000" fill-rule="evenodd" d="M0 27.5895L28.8602 1.4686C30.443 0.385222 31.9504 -0.098753 33.3823 0.0166697C34.8142 0.132092 35.825 0.20466 36.4147 0.234373L36.7884 1.00919C36.5884 1.1509 35.9507 1.24175 34.8754 1.28175C33.2623 1.34174 32.3623 1.08976 30.8916 2.06342C29.4208 3.03709 27.3449 4.82671 25.8313 5.94951C24.8222 6.69804 18.5162 12.3978 6.91336 23.0486L0.65311 28.9438C0.582256 29.0032 0.364553 28.5518 0 27.5895Z"/><path id="shape39" transform="translate(189.645189299612, 87.0649901215015)" fill="#f7a41d" fill-rule="evenodd" d="M17.8054 12.5119L21.9452 8.80412L17.502 0L0 15.9712L2.12218 20.9646L8.70813 21.3675L6.88422 16.8334L15.7312 8.80755C15.7609 8.80184 16.4523 10.0366 17.8054 12.5119Z"/><path id="shape40" transform="translate(189.930603321038, 97.7684444745529)" fill="#f7a41d" fill-rule="evenodd" d="M22.36 0L18.2014 3.44554L23.1948 13.5576L0 11.7868L6.28254 18.4893L13.501 33.5331L17.8379 29.5065L12.9799 19.2299L35.9982 21.5646L29.6351 14.3856C29.6351 14.3616 27.21 9.56637 22.36 0Z"/><path id="shape41" transform="translate(204.050454939565, 120.317009266359)" fill="#f7a41d" fill-rule="evenodd" d="M13.6724 0L19.5967 0.44912L22.1989 5.33116L4.60434 21.2321L0 12.6662L4.43463 8.72356L6.38025 12.3679L15.5666 3.98723C15.5426 3.9998 14.9112 2.67072 13.6724 0Z"/><path id="shape42" transform="translate(113.940612291127, 152.597584101944)" fill="#000000" fill-rule="evenodd" d="M75.7406 1.73818L78.2788 0C79.7123 5.95071 80.396 10.1446 80.3297 12.5818C80.2303 16.2376 79.8739 36.6182 79.5758 38.2061C79.377 39.2646 78.8622 40.7798 78.0315 42.7515C66.5972 47.5265 58.6659 50.2986 54.2376 51.0679C47.5952 52.2218 33.9903 53.3055 31.6242 54.0788C30.0469 54.5943 26.2869 54.5119 20.3442 53.8315C10.2271 51.3038 4.69333 49.8574 3.74303 49.4921C2.79273 49.1269 1.54505 48.1224 0 46.4788C1.30424 44.9709 2.20444 44.4424 2.70061 44.8933C3.44485 45.5697 5.64849 48.0958 9.6897 49.2764C13.7309 50.457 23.4861 52.4861 27.8473 52.4909C32.2085 52.4958 46.3249 50.8182 49.3018 49.96C52.2788 49.1018 67.2776 45.8194 69.1418 44.5636C71.0061 43.3079 76.4485 42.4861 76.9358 40.6315C77.423 38.777 78.5115 31.2497 78.2836 28.9539C78.0558 26.6582 79.0376 18.0255 78.4412 16.6436C77.8449 15.2618 78.1333 8.34061 77.5612 6.18061C76.9891 4.02061 76.9794 4.03515 75.7406 1.73818Z"/><path id="shape43" transform="translate(84.0951414867743, 191.335388773916)" fill="#000000" fill-rule="evenodd" d="M108.522 0C109.409 1.97933 110.104 4.46263 110.607 7.44991C111.361 11.9308 112.52 20.1555 113.206 23.7176C113.891 27.2798 114.844 33.6086 114.913 35.8576C114.982 38.1066 115.451 58.5399 115.417 60.782C115.394 62.2768 115.05 64.3704 114.385 67.0629C110.41 70.0296 107.669 71.6363 106.16 71.8832C104.652 72.13 101.907 72.4283 97.9253 72.778C94.2798 70.1313 91.2776 67.9702 88.9189 66.2949C85.3808 63.7819 79.6965 57.2165 77.6943 55.948C75.6921 54.6795 66.5006 48.1621 64.7727 46.8593C63.6208 45.9908 60.6952 42.4173 55.996 36.1387C54.7732 38.7603 53.4967 41.0779 52.1665 43.0915C50.8363 45.1051 48.0284 48.3632 43.7429 52.8659L41.991 54.0487C44.928 59.9067 46.5119 63.9305 46.7428 66.1201C46.9736 68.3097 47.0353 71.3564 46.9279 75.2602L39.958 82.6964L33.756 84.0403C29.0179 82.3627 24.785 80.1525 21.0572 77.4098C15.4655 73.2957 9.84293 68.4822 7.45333 65.0367C5.86027 62.7397 3.37583 58.061 0 51.0008C1.19765 42.9441 2.57244 37.4552 4.12436 34.5342C6.45224 30.1527 12.1297 20.4401 12.9251 18.3831C13.4553 17.0117 14.4244 15.5935 15.8323 14.1284L17.2483 14.3273C9.12753 27.2135 4.68776 35.6576 3.92894 39.6597C2.79071 45.6628 1.18623 48.2581 1.82391 50.9905C2.46159 53.723 4.91289 58.8964 6.29454 60.878C7.67618 62.8597 19.8573 75.6887 24.561 77.9275C29.2648 80.1662 34.284 82.4461 36.2004 81.4518C37.4781 80.789 40.0037 79.0977 43.7772 76.3778C44.856 73.1071 45.0811 70.1953 44.4526 67.6423C43.8241 65.0893 42.8115 61.4563 41.415 56.7434L40.0951 54.6246C33.6543 57.3057 29.8522 58.3559 28.6888 57.7753C26.9438 56.9045 25.6547 57.4634 30.0739 56.0817C33.02 55.1606 36.8953 53.8407 41.6996 52.1219C47.729 46.6136 50.9631 42.9772 51.402 41.2128C51.8408 39.4483 52.8202 36.9238 54.3401 33.6394L55.8452 32.0349C58.4919 36.5467 60.7683 39.7694 62.6745 41.703C65.5338 44.6034 80.2828 54.8612 82.5524 56.5548C84.822 58.2485 88.9566 65.335 92.481 66.7817C96.0054 68.2285 97.5276 71.3209 100.627 70.7758C103.726 70.2307 110.244 69.209 111.299 67.1211C112.355 65.0333 113.812 62.4482 113.634 59.0096C113.456 55.5709 113.744 37.3387 113.182 34.6337C112.619 31.9287 111.467 20.4812 110.302 16.7066C109.525 14.1901 108.618 9.51609 107.583 2.68443C107.409 2.20217 107.723 1.30736 108.522 0Z"/><path id="shape44" transform="translate(205.081583760488, 139.976290505854)" fill="#000000" fill-rule="evenodd" d="M20.5052 2.08789L22.4937 0L28.1265 1.98847L34.4999 6.00655C36.6438 7.92645 37.6723 9.7755 37.5855 11.5537C37.4552 14.221 37.1809 20.3852 35.0587 24.1633C32.9366 27.9414 30.6053 31.291 27.7597 32.8612C24.9141 34.4314 20.1795 37.6027 17.7488 38.2163C15.318 38.83 9.19492 38.8712 6.54134 37.4107C3.88776 35.9502 2.82496 35.8336 1.97814 33.9411C1.13133 32.0487 -0.836571 22.6617 0.394224 20.7829C1.21475 19.5304 2.01586 19.0013 2.79753 19.1956C2.05242 24.3496 2.06157 28.0751 2.82496 30.3722C3.97004 33.8177 6.41792 35.7479 8.27611 36.1936C10.1343 36.6393 16.2574 36.7216 19.5555 35.0176C22.8536 33.3137 30.8658 29.1071 32.1035 25.881C33.3411 22.6548 35.1479 19.271 35.237 15.6506C35.3262 12.0302 36.1627 10.3298 33.9239 8.61899C31.6852 6.90822 28.4145 4.13122 26.0661 3.63067C23.7176 3.13013 23.7176 3.13013 20.5052 2.08789Z"/><path id="shape45" transform="translate(95.1757453424267, 264.759345725881)" fill="#000000" fill-rule="evenodd" d="M14.9503 5.92431L1.00608 15.4443C0.338604 16.1587 0.00325025 16.9352 1.79242e-05 17.774C-0.0032144 18.6128 0.430725 20.111 1.30184 22.2686L3.05456 23.3667L35.7164 23.0807C37.6816 22.0835 38.838 21.1873 39.1855 20.3922C39.7067 19.1995 40.8849 14.8698 40.7782 13.0346C40.6715 11.1995 37.6 1.19946 36.16 0.220064C35.2 -0.432865 34.5382 0.367135 34.1746 2.62006C35.8715 3.11138 36.8824 4.05279 37.2073 5.44431C37.6946 7.53158 38.8873 11.951 38.514 13.9776C38.1406 16.0043 38.5285 18.8698 37.1661 19.6407C35.8037 20.4116 35.6994 21.9267 34.3515 21.6528C33.4529 21.4702 23.5257 21.5906 4.56972 22.014C1.89174 20.2346 1.01335 18.7526 1.93456 17.5679C2.85578 16.3833 4.99073 14.7946 8.33941 12.8019L16.5964 7.14128C16.6481 6.66451 16.0994 6.25885 14.9503 5.92431Z"/><path id="shape46" transform="translate(172.136979989526, 257.917400973818)" fill="#000000" fill-rule="evenodd" d="M8.44121 4.19292C7.92242 5.80019 6.00485 11.9796 5.11273 14.6656C4.22061 17.3517 1.57818 22.1517 1.08606 23.9093C0.75798 25.081 0.39596 26.0038 0 26.6778L2.11152 29.7008L3.03758 30.0378L9.86182 29.9675L30.6255 16.0184C30.7499 12.382 30.4194 9.34928 29.6339 6.92019C28.4558 3.27655 27.5564 -0.0785977 26.3006 0.00140233C25.4634 0.0547357 25.0756 0.385241 25.137 0.992918C27.4319 5.37918 28.6101 8.0313 28.6715 8.94928C28.7329 9.86726 28.5479 11.8778 28.1164 14.9808L10.3006 28.319L5.40364 29.039C3.16364 28.3263 2.10182 27.5157 2.21818 26.6075C2.39273 25.245 6.60606 16.1711 7.33576 13.3759C7.82222 11.5125 8.58748 8.92989 9.63152 5.62807C9.59434 4.81352 9.19758 4.33514 8.44121 4.19292Z"/><path id="shape47" transform="translate(193.668472290421, 55.7250468073335)" fill="#000000" fill-rule="evenodd" d="M0.416485 146.713C7.38984 148.16 12.689 148.981 16.314 149.175C21.7514 149.466 30.2915 149.974 43.1892 144.855C56.0868 139.736 68.7959 131.399 72.8311 126.801C76.8663 122.204 82.4837 117.159 86.2173 108.807C89.9508 100.456 93.0878 91.8366 93.4512 83.9684C93.8146 76.1002 94.7677 77.0379 93.482 65.8648C92.1964 54.6916 87.4035 41.854 84.9076 37.7262C82.4117 33.5984 77.2657 24.2989 66.4971 16.1564C55.7285 8.01399 47.1832 4.04219 38.9619 1.91316C30.7407 -0.215878 29.1413 -0.243305 27.266 0.288096C25.3906 0.819498 24.201 0.651506 21.832 2.98624C20.2526 4.54274 18.8527 5.90495 17.6322 7.07289L17.0922 8.60367L24.5593 9.89618L35.8832 18.6832L36.5964 21.0556C38.7928 18.9483 40.4704 17.6604 41.6292 17.1918C42.788 16.7233 43.388 16.5221 43.4291 16.5884C43.9754 19.098 43.8463 20.9676 43.0417 22.1973C42.2372 23.4269 41.5492 24.6794 40.9778 25.9548L40.6727 26.829C42.7846 26.8679 44.4702 27.2987 45.7296 28.1215C46.989 28.9443 49.9465 29.446 54.6023 29.6266L57.8353 29.0918L62.7499 38.825C63.0744 40.5415 62.1522 41.8785 59.9832 42.8362C56.7296 44.2727 54.5732 45.5138 52.499 45.2841C51.1162 45.131 50.0682 44.9801 49.3551 44.8315C50.3677 47.5537 51.6727 49.5227 53.2704 50.7387C55.6668 52.5626 58.9238 54.8219 63.2436 54.719C66.1234 54.6505 67.777 54.8127 68.2045 55.2059C70.0444 59.1257 70.7758 62.0421 70.3986 63.9551C70.0215 65.8682 69.5141 67.4395 68.8764 68.6692C64.7841 70.5708 61.6134 71.1331 59.3643 70.356C57.1153 69.5788 55.5405 68.7515 54.64 67.8738C54.1806 69.0349 54.7269 70.5651 56.2788 72.4644C58.6067 75.3134 58.5175 78.4675 61.5996 80.1166C63.6544 81.216 65.492 82.1588 67.1125 82.945C67.2679 84.4558 66.748 85.9677 65.5526 87.4808C64.3572 88.9939 62.9493 90.4772 61.3288 91.9309L56.9816 91.8623C54.8103 90.4246 53.4549 88.3813 52.9155 85.7323C52.3761 83.0833 52.1236 80.6354 52.1578 78.3887C51.0059 79.0081 50.0345 80.0983 49.2437 81.6594C48.4529 83.2204 47.6392 85.2363 46.8027 87.7071L46.045 91.3686C46.829 93.5559 47.2941 94.0496 47.4404 92.8497C47.6598 91.0498 48.2563 87.0762 49.326 84.7689C50.0391 83.2307 50.7785 82.1154 51.5442 81.4228L52.9909 89.6613L56.9302 93.2062L62.2545 93.2405L69.2758 83.6341C65.3857 81.136 62.9447 79.2435 61.9528 77.9567C60.9608 76.6699 59.2546 74.3329 56.8342 70.9456C60.3677 72.2393 63.2624 72.5078 65.5183 71.7513C67.7742 70.9948 69.605 69.8725 71.0106 68.3846L71.758 60.8044L69.101 53.6939C66.4474 53.0026 63.8315 52.5917 61.2534 52.4614C58.6752 52.3312 56.4662 51.4021 54.6263 49.6741L51.8939 47.2846C58.001 45.7258 61.6179 44.2207 62.7447 42.7694C63.8715 41.318 64.3698 39.7718 64.2395 38.1307L59.1415 28.8021L56.817 27.3553C52.1498 28.2284 49.246 28.4169 48.1055 27.921C46.965 27.425 45.3548 26.6822 43.2749 25.6925C44.6577 23.0869 45.2931 21.0196 45.1811 19.4905C45.0691 17.9615 44.8771 16.4827 44.6051 15.0542C42.98 15.3216 41.451 15.9193 40.0179 16.8473C38.5848 17.7752 37.5643 18.238 36.9563 18.2358C32.7531 14.6862 30.0801 12.46 28.9373 11.5572C27.7945 10.6544 25.8049 9.42706 22.9685 7.87514L19.6601 7.35745C22.7136 3.54507 25.6106 1.64574 28.3511 1.65945C32.4617 1.68003 45.3319 5.59868 49.1203 7.79971C52.9087 10.0007 63.5436 13.4737 70.2358 21.479C76.928 29.4843 84.4585 36.2023 88.4766 52.5283C92.4946 68.8543 93.6106 68.4069 91.1661 82.7205C88.7217 97.034 88.5897 104.037 79.0553 115.974C69.521 127.912 64.5601 133.325 53.5892 138.581C42.6183 143.837 36.8998 146.73 26.6934 147.306C16.4871 147.882 5.7665 145.657 3.03064 145.27C1.20673 145.012 0.218209 144.62 0.0650743 144.094C-0.0880607 144.231 0.0290761 145.104 0.416485 146.713Z"/><path id="shape48" transform="translate(66.2592136335346, 139.922286429248)" fill="#000000" fill-rule="evenodd" d="M1.79274 7.63675C0.831076 7.0145 0.85936 5.85484 1.87759 4.15779C2.89583 2.46073 3.6595 1.32936 4.16862 0.763675L2.47156 0C0.378528 3.67696 -0.385148 6.02455 0.180538 7.04278C1.02907 8.57013 1.02907 8.57013 1.79274 7.63675Z"/>
</svg>
