<svg xmlns="http://www.w3.org/2000/svg" viewBox="0 0 717.49 254.59" preserveAspectRatio="xMidYMid">
  <path d="M469 40.79v25.13l-96.65 114.87H471l-.25 33H320v-26.37l95.67-113.63H323v-33zM533 40.79v173h-39v-173zM682 172.05c-11.17 5.66-23.58 9.35-34 9.35-30.78 0-54.86-23.39-54.86-53.92 0-30.28 23.83-53.67 54.62-53.67 16.52 0 34 7.08 46.83 18.46l22.91-27.08c-17.62-15.26-43.93-25.11-69.74-25.11-54.12 0-94.83 37.67-94.83 87.4 0 50 40 87.9 92.59 87.9 24.07 0 52.12-9.11 70.49-22.4v-70.19h-89.09L682 147.86z" fill="#fff"/>
  <path fill="#fff" d="M279 40.79v173h-85.22l34.4-41H238v-91h-16.86l34.4-41H279zM23.46 213.79H0v-173h85.36l-34.41 41H41v91h16.86l-34.4 41z"/>
  <path fill="#fff" d="M212.08 172.79l-34.4 41H94.3l-.02.02-88.85 40.78 144.91-172.8H66.8l34.4-41h83.28L273.43 0 128.46 172.79h83.62z"/>
</svg>
