<svg xmlns="http://www.w3.org/2000/svg" viewBox="0 0 717.5 254.6" preserveAspectRatio="xMidYMid">
<g fill="#FFF">
	<!-- [Z] symbol -->
	<polygon points="23.5,213.8 0,213.8 0,40.8 85.4,40.8 51,81.8 41,81.8 41,172.8 57.9,172.8 "/>
	<path d="M212.1,172.8l-34.4,41H94.3l0,0L5.4,254.6L150.3,81.8H66.8l34.4-41h83.3L273.4,0l-145,172.8H212.1
	L212.1,172.8z"/>
	<polygon points="279,40.8 279,213.8 193.8,213.8 228.2,172.8 238,172.8 238,81.8 221.1,81.8 
	255.5,40.8 "/>

	<!-- "ZIG", in order -->
	<polygon points="469,40.8 469,65.9 372.4,180.8 471,180.8 470.8,213.8 320,213.8 320,187.4 415.7,73.8 323,73.8 
		323,40.8 "/>
	<rect x="494" y="40.8" width="39" height="173" shape-rendering="crispEdges"/>
	<path d="M682,172c-11.2,5.7-23.6,9.4-34,9.4c-30.8,0-54.9-23.4-54.9-53.9c0-30.3,23.8-53.7,54.6-53.7
		c16.5,0,34,7.1,46.8,18.5l22.9-27.1c-17.6-15.3-43.9-25.1-69.7-25.1c-54.1,0-94.8,37.7-94.8,87.4c0,50,40,87.9,92.6,87.9
		c24.1,0,52.1-9.1,70.5-22.4v-70.2h-89.1l55.1,25.1V172z"  shape-rendering="geometricPrecision"/>
</g>
</svg>
